<svg width="24" height="24" viewBox="0 0 24 24" fill="none" xmlns="http://www.w3.org/2000/svg">
<path d="M17.3732 14.0271L17.3946 14.0485C17.4803 14.1772 17.5876 14.2845 17.7163 14.3489C17.845 14.4132 17.9951 14.4562 18.1454 14.4562C18.3813 14.4562 18.6172 14.3489 18.7674 14.1988C18.9175 14.0487 19.0248 13.8127 19.0248 13.5767C19.0248 13.3407 18.9175 13.1048 18.7674 12.9546C18.6173 12.8045 18.3813 12.6972 18.1454 12.6972C17.9094 12.6972 17.6735 12.8045 17.5233 12.9546C17.3732 13.1047 17.2659 13.3407 17.2659 13.5767C17.2659 13.6624 17.2873 13.7268 17.2873 13.7911C17.2873 13.8984 17.3302 13.9628 17.3732 14.0271L17.3732 14.0271ZM14.3272 19.7759C14.606 19.7759 14.8206 19.9903 14.8206 20.2693C14.8206 20.5481 14.6062 20.7626 14.3272 20.7626L5.6188 20.7625C5.16836 20.7625 4.76087 20.5909 4.48192 20.2907C4.18158 20.0119 4.01008 19.6042 4.01008 19.1538V18.2743C4.01008 16.2581 4.84662 14.392 6.17654 13.062C7.07742 12.1612 8.2143 11.4963 9.47973 11.153C9.00789 10.9385 8.57885 10.6168 8.21416 10.2521C7.39902 9.43696 6.90578 8.32163 6.90578 7.0776C6.90578 5.83357 7.39917 4.71809 8.21416 3.9031C9.02929 3.08797 10.1446 2.59473 11.3886 2.59473C12.6327 2.59473 13.7482 3.10952 14.5631 3.9031C15.3783 4.71824 15.8715 5.83357 15.8715 7.0776C15.8715 8.32163 15.3781 9.4371 14.5631 10.2521C14.1985 10.6168 13.7696 10.917 13.2762 11.153C13.8553 11.3031 14.413 11.5391 14.9278 11.8179C15.1638 11.9466 15.2496 12.2469 15.1209 12.4828C14.9922 12.7187 14.6918 12.8045 14.456 12.6758C13.9842 12.4184 13.4908 12.2254 12.9546 12.0967C12.4398 11.968 11.9036 11.9036 11.3672 11.9036C9.60843 11.9036 8.02111 12.6115 6.8415 13.7911C5.68322 14.9494 4.95399 16.5367 4.95399 18.2955V19.175C4.95399 19.3467 5.01833 19.4968 5.12563 19.6041C5.23293 19.7114 5.40443 19.7757 5.59747 19.7757L14.3272 19.7759ZM13.834 4.61086C13.2119 3.98878 12.3326 3.58128 11.3673 3.58128C10.4021 3.58128 9.52261 3.96738 8.90067 4.61086C8.27858 5.23295 7.87108 6.11229 7.87108 7.07752C7.87108 8.04275 8.25718 8.92224 8.90067 9.54418C9.52275 10.1663 10.4021 10.5738 11.3673 10.5738C12.3326 10.5738 13.212 10.1877 13.834 9.54418C14.4561 8.92209 14.8636 8.04275 14.8636 7.07752C14.8636 6.11229 14.4775 5.25435 13.834 4.61086ZM16.794 14.9067L14.5418 16.1507C14.5848 16.3008 14.6062 16.4295 14.6062 16.5797C14.6062 16.7298 14.5848 16.8801 14.5632 17.0088L16.8154 18.2528C16.9227 18.1455 17.0514 18.0384 17.2015 17.9525C17.4803 17.7808 17.8021 17.6951 18.1454 17.6951C18.6601 17.6951 19.132 17.9095 19.4537 18.2528C19.7969 18.596 19.9899 19.0464 19.9899 19.5612C19.9899 20.076 19.7755 20.5478 19.4537 20.8696C19.1106 21.2127 18.6601 21.4058 18.1454 21.4058C17.6306 21.4058 17.1587 21.1913 16.837 20.848C16.4938 20.5049 16.2792 20.0544 16.2792 19.5396C16.2792 19.3896 16.3006 19.2393 16.3436 19.1106L14.0914 17.8666L14.027 17.9095C13.6839 18.2313 13.2334 18.4243 12.74 18.4243C12.2253 18.4243 11.7534 18.2099 11.4317 17.8881C11.0885 17.545 10.8955 17.0945 10.8955 16.5797C10.8955 16.065 11.1099 15.6145 11.4532 15.2714C11.7964 14.9282 12.2468 14.7136 12.7616 14.7136C13.2764 14.7136 13.7268 14.9281 14.07 15.2714L14.0914 15.2928L16.3436 14.0487C16.3006 13.8986 16.2792 13.7699 16.2792 13.6197C16.2792 13.1049 16.4937 12.6331 16.837 12.2898C17.1801 11.9466 17.6306 11.7536 18.1454 11.7536C18.6601 11.7536 19.132 11.968 19.4537 12.2898C19.7969 12.6329 19.9899 13.0834 19.9899 13.5982C19.9899 14.1129 19.7755 14.5634 19.4537 14.9065C19.1106 15.2497 18.6601 15.4643 18.1454 15.4643C17.8022 15.4643 17.5019 15.3785 17.2231 15.2069C17.0514 15.1427 16.9227 15.0354 16.794 14.9067L16.794 14.9067ZM13.5122 16.1723L13.4907 16.1507C13.4477 16.0864 13.4049 16.022 13.3406 15.9577C13.1905 15.8076 12.9545 15.7003 12.7185 15.7003C12.4825 15.7003 12.2467 15.8076 12.0964 15.9577C11.9463 16.1078 11.839 16.3438 11.839 16.5798C11.839 16.8157 11.9463 17.0516 12.0964 17.2018C12.2465 17.3519 12.4825 17.4592 12.7185 17.4592C12.9545 17.4592 13.1689 17.3735 13.319 17.2232L13.3404 17.2018C13.4905 17.0517 13.5978 16.8157 13.5978 16.5798C13.598 16.4297 13.5766 16.301 13.5122 16.1723L13.5122 16.1723ZM18.7458 18.9393C18.5957 18.7892 18.3597 18.6819 18.1237 18.6819C17.9521 18.6819 17.802 18.7248 17.6733 18.8106C17.5446 18.8963 17.4159 19.0036 17.3515 19.1323C17.3086 19.1967 17.2872 19.2824 17.2658 19.3467C17.2444 19.4111 17.2444 19.4968 17.2444 19.5612C17.2444 19.7972 17.3517 20.033 17.5018 20.1833C17.6519 20.3334 17.8879 20.4407 18.1239 20.4407C18.3599 20.4407 18.5957 20.3334 18.746 20.1833C18.8961 20.0332 19.0034 19.7972 19.0034 19.5612C19.0032 19.3253 18.9175 19.0894 18.7458 18.9393H18.7458Z" fill="#000080"/>
</svg>
