<svg width="69" height="69" viewBox="0 0 69 69" fill="none" xmlns="http://www.w3.org/2000/svg">
<path d="M45.6667 32.3335H22.3333C20.4924 32.3335 19 33.8259 19 35.6668V47.3335C19 49.1744 20.4924 50.6668 22.3333 50.6668H45.6667C47.5076 50.6668 49 49.1744 49 47.3335V35.6668C49 33.8259 47.5076 32.3335 45.6667 32.3335Z" stroke="#4B5E6E" stroke-width="1.4" stroke-linecap="round" stroke-linejoin="round"/>
<path d="M25.6665 32.3335V25.6668C25.6665 23.4567 26.5445 21.3371 28.1073 19.7743C29.6701 18.2115 31.7897 17.3335 33.9998 17.3335C36.21 17.3335 38.3296 18.2115 39.8924 19.7743C41.4552 21.3371 42.3332 23.4567 42.3332 25.6668V32.3335" stroke="#4B5E6E" stroke-width="1.4" stroke-linecap="round" stroke-linejoin="round"/>
<path d="M34.3333 67.6667C52.7428 67.6667 67.6667 52.7428 67.6667 34.3333C67.6667 15.9238 52.7428 1 34.3333 1C15.9238 1 1 15.9238 1 34.3333C1 52.7428 15.9238 67.6667 34.3333 67.6667Z" stroke="#4B5E6E" stroke-width="1.5" stroke-linecap="round" stroke-linejoin="round"/>
</svg>
