<svg width="16" height="16" viewBox="0 0 16 16" fill="none" xmlns="http://www.w3.org/2000/svg">
<path fill-rule="evenodd" clip-rule="evenodd" d="M0 8C0 5.87827 0.842855 3.84344 2.34315 2.34315C3.84344 0.842855 5.87827 0 8 0C10.1217 0 12.1566 0.842855 13.6569 2.34315C15.1571 3.84344 16 5.87827 16 8C16 10.1217 15.1571 12.1566 13.6569 13.6569C12.1566 15.1571 10.1217 16 8 16C5.87827 16 3.84344 15.1571 2.34315 13.6569C0.842855 12.1566 0 10.1217 0 8ZM8 1.14752C6.18261 1.14752 4.43965 1.86947 3.15456 3.15456C1.86947 4.43965 1.14752 6.18261 1.14752 8C1.14752 9.81739 1.86947 11.5603 3.15456 12.8454C4.43965 14.1305 6.18261 14.8525 8 14.8525C9.81739 14.8525 11.5603 14.1305 12.8454 12.8454C14.1305 11.5603 14.8525 9.81739 14.8525 8C14.8525 6.18261 14.1305 4.43965 12.8454 3.15456C11.5603 1.86947 9.81739 1.14752 8 1.14752ZM8.90593 11.6237C8.90593 11.864 8.81049 12.0944 8.64059 12.2643C8.4707 12.4342 8.24027 12.5297 8 12.5297C7.75973 12.5297 7.5293 12.4342 7.35941 12.2643C7.18951 12.0944 7.09407 11.864 7.09407 11.6237C7.09407 11.3835 7.18951 11.153 7.35941 10.9831C7.5293 10.8132 7.75973 10.7178 8 10.7178C8.24027 10.7178 8.4707 10.8132 8.64059 10.9831C8.81049 11.153 8.90593 11.3835 8.90593 11.6237ZM6.24853 6.49011C6.24853 5.67115 6.95516 4.88963 8 4.88963C9.04484 4.88963 9.75147 5.67115 9.75147 6.49011C9.75147 7.0832 9.42534 7.38638 8.86245 7.72822C8.80085 7.76687 8.72837 7.80794 8.64986 7.85384C8.4138 7.98424 8.18626 8.12948 7.96859 8.28869C7.67628 8.51578 7.33565 8.88419 7.33565 9.44949C7.33501 9.62569 7.40439 9.79493 7.52852 9.91997C7.65266 10.045 7.82139 10.1156 7.99758 10.1163C8.17378 10.1169 8.34302 10.0475 8.46806 9.92339C8.5931 9.79925 8.66371 9.63052 8.66435 9.45433C8.69809 9.40871 8.73886 9.36876 8.78514 9.33595C8.90835 9.24053 9.04484 9.16201 9.22724 9.05571C9.32146 9.00136 9.42896 8.93855 9.55338 8.86366C10.1984 8.47109 11.0802 7.82365 11.0802 6.49011C11.0802 4.89325 9.73335 3.56092 8 3.56092C6.26665 3.56092 4.91983 4.89325 4.91983 6.49011C4.91983 6.66631 4.98982 6.83529 5.11441 6.95988C5.239 7.08447 5.40798 7.15446 5.58418 7.15446C5.76037 7.15446 5.92935 7.08447 6.05394 6.95988C6.17853 6.83529 6.24853 6.66631 6.24853 6.49011Z" fill="#1A96F0"/>
</svg>
