<svg width="40" height="41" viewBox="0 0 40 41" fill="none" xmlns="http://www.w3.org/2000/svg">
<path d="M0 8C0 3.85786 3.35786 0.5 7.5 0.5H32.5C36.6421 0.5 40 3.85786 40 8V33C40 37.1421 36.6421 40.5 32.5 40.5H7.5C3.35786 40.5 0 37.1421 0 33V8Z" fill="#E2ECFF"/>
<g clip-path="url(#clip0_1003_9741)">
<path d="M19.9999 11L30.9975 15.2857V16.7143H29.5312C29.5312 16.9077 29.4529 17.0751 29.2963 17.2165C29.1397 17.3579 28.9545 17.4286 28.7407 17.4286H11.2592C11.0453 17.4286 10.8601 17.3579 10.7036 17.2165C10.547 17.0751 10.4687 16.9077 10.4687 16.7143H9.00238V15.2857L19.9999 11ZM11.9351 18.1429H14.8677V26.7143H16.3341V18.1429H19.2668V26.7143H20.7331V18.1429H23.6658V26.7143H25.1321V18.1429H28.0648V26.7143H28.7407C28.9545 26.7143 29.1397 26.785 29.2963 26.9263C29.4529 27.0677 29.5312 27.2351 29.5312 27.4286V28.1429H10.4687V27.4286C10.4687 27.2351 10.547 27.0677 10.7036 26.9263C10.8601 26.785 11.0453 26.7143 11.2592 26.7143H11.9351V18.1429ZM30.207 28.8571C30.4209 28.8571 30.6061 28.9278 30.7627 29.0692C30.9192 29.2106 30.9975 29.378 30.9975 29.5714V31H9.00238V29.5714C9.00238 29.378 9.08066 29.2106 9.23722 29.0692C9.39379 28.9278 9.57899 28.8571 9.79283 28.8571H30.207Z" fill="#000080"/>
</g>
<defs>
<clipPath id="clip0_1003_9741">
<rect width="22" height="20" fill="white" transform="translate(9 11)"/>
</clipPath>
</defs>
</svg>
