<svg width="22" height="20" viewBox="0 0 22 20" fill="none" xmlns="http://www.w3.org/2000/svg">
<path d="M16.7895 13.4372H10.5934C10.1423 13.4364 9.6994 13.3169 9.30926 13.0908C8.91913 12.8646 8.59544 12.5395 8.37069 12.1485L3.12258 1.46056C3.06941 1.34887 2.95128 1.28324 2.82834 1.29717H0.937274C0.810846 1.29128 0.692186 1.23423 0.608481 1.13914C0.52491 1.04405 0.483527 0.919091 0.493703 0.792782C0.489551 0.675192 0.535353 0.56122 0.619864 0.47939C0.704509 0.397427 0.819818 0.355238 0.937274 0.363275H2.82834C3.06914 0.354301 3.30727 0.417515 3.51193 0.544883C3.71657 0.672113 3.87847 0.85774 3.97705 1.07765L9.19259 11.7096C9.48643 12.2032 10.019 12.505 10.5935 12.5034H16.7896C17.3581 12.51 17.889 12.2198 18.1903 11.7376L20.5717 4.90654V4.84587C20.5735 4.81641 20.5735 4.78667 20.5717 4.75721C20.5942 4.69186 20.6207 4.62784 20.651 4.5657C20.6766 4.42962 20.6482 4.289 20.5717 4.17354C20.5286 4.12077 20.4622 4.09278 20.3943 4.0988H8.553C8.29519 4.0988 8.08613 3.88974 8.08613 3.63193C8.08613 3.37399 8.29519 3.16493 8.553 3.16493H20.3943C20.7627 3.16037 21.1107 3.33435 21.3281 3.63193C21.5739 3.98028 21.6541 4.41903 21.5475 4.83193C21.5458 4.86301 21.5458 4.89421 21.5475 4.92528C21.5324 5.04113 21.501 5.15444 21.4542 5.26145L19.0354 12.0925C19.0258 12.1217 19.0133 12.1499 18.9982 12.1765C18.5329 12.954 17.6954 13.4319 16.7895 13.4373L16.7895 13.4372Z" fill="#000080"/>
<circle cx="16.9291" cy="17.2006" r="1.86267" stroke="#000080"/>
<circle cx="10.2714" cy="17.2006" r="1.86267" stroke="#000080"/>
</svg>
