<svg width="55" height="55" viewBox="0 0 55 55" fill="none" xmlns="http://www.w3.org/2000/svg">
<rect width="55" height="55" rx="6" fill="#F1F6FF"/>
<path fill-rule="evenodd" clip-rule="evenodd" d="M12.9834 31.6942L17.1208 24.566H16.9168C16.4279 24.566 16.0002 23.9793 16.0002 23.4993C16.0002 23.0193 16.4279 22.4993 16.9168 22.4993H18.3204L20.2552 19.166H14.7779C13.4335 19.166 12.3335 20.246 12.3335 21.566V40.766C12.3335 42.086 13.4335 43.166 14.7779 43.166H39.2224C40.5668 43.166 41.6668 42.086 41.6668 40.766V26.966C41.6668 25.646 40.6279 24.626 39.2835 24.566H38.4785L29.0016 40.8932C27.9336 42.7332 25.5722 43.3659 23.7272 42.3064L14.3902 36.9443C12.5452 35.8848 11.9154 33.5342 12.9834 31.6942ZM35.5557 38.966C34.5168 38.966 33.7224 38.186 33.7224 37.166C33.7224 36.146 34.5168 35.366 35.5557 35.366C36.5946 35.366 37.3891 36.146 37.3891 37.166C37.3891 38.186 36.5335 38.966 35.5557 38.966Z" fill="#5FA4F8"/>
<path fill-rule="evenodd" clip-rule="evenodd" d="M16.5248 33.5601L25.6077 38.7762L36.183 20.5566L27.1001 15.3404L16.5248 33.5601ZM14.4076 33.226C14.0655 33.8155 14.2672 34.5685 14.8583 34.908L25.2674 40.8858C25.8585 41.2252 26.615 41.0225 26.9571 40.433L38.3002 20.8906C38.6424 20.3012 38.4406 19.5481 37.8495 19.2087L27.4404 13.2309C26.8493 12.8915 26.0928 13.0942 25.7507 13.6837L14.4076 33.226Z" fill="#1E4DD8"/>
<mask id="mask0_1293_12193" style="mask-type:alpha" maskUnits="userSpaceOnUse" x="14" y="13" width="25" height="28">
<path d="M25.4573 14.2178L14.7178 32.708C14.2043 33.592 14.5069 34.7211 15.3935 35.23L24.7155 40.5798C25.6021 41.0887 26.7371 40.7846 27.2506 39.9006L37.9901 21.4103C38.5035 20.5264 38.201 19.3972 37.3143 18.8884L27.9924 13.5385C27.1057 13.0297 25.9707 13.3338 25.4573 14.2178Z" fill="#CCA301"/>
</mask>
<g mask="url(#mask0_1293_12193)">
<path d="M29.4616 15.7353C30.591 13.7919 29.959 11.3288 28.0499 10.2337C26.1409 9.13872 23.6777 9.82649 22.5483 11.7699C21.419 13.7133 22.051 16.1765 23.9601 17.2715C25.8691 18.3665 28.3323 17.6788 29.4616 15.7353Z" fill="#1E4DD8"/>
<path d="M41.5098 22.6924C42.6392 20.7489 42.0072 18.2858 40.0981 17.1908C38.1891 16.0958 35.7259 16.7835 34.5965 18.727C33.4671 20.6704 34.0992 23.1335 36.0082 24.2286C37.9173 25.3236 40.3804 24.6358 41.5098 22.6924Z" fill="#1E4DD8"/>
<path d="M16.3338 30.5247C18.2428 31.6198 18.8749 34.0829 17.7455 36.0263C16.6161 37.9698 14.153 38.6575 12.2439 37.5625C10.3348 36.4675 9.70281 34.0043 10.8322 32.0609C11.9616 30.1175 14.4247 29.4297 16.3338 30.5247Z" fill="#1E4DD8"/>
<path d="M29.7937 42.9834C30.9231 41.0399 30.291 38.5768 28.382 37.4818C26.4729 36.3867 24.0098 37.0745 22.8804 39.0179C21.751 40.9614 22.383 43.4245 24.2921 44.5195C26.2011 45.6146 28.6643 44.9268 29.7937 42.9834Z" fill="#1E4DD8"/>
<path d="M31.2876 21.4164C31.705 20.6975 31.4801 19.7913 30.7851 19.3924C30.0902 18.9934 29.1884 19.2528 28.771 19.9717C28.3536 20.6906 28.5785 21.5968 29.2735 21.9958C29.9684 22.3947 30.8702 22.1353 31.2876 21.4164Z" fill="#1E4DD8"/>
<path d="M23.9648 34.1C24.3822 33.3811 24.1573 32.4749 23.4623 32.0759C22.7674 31.677 21.8656 31.9364 21.4482 32.6553C21.0308 33.3742 21.2557 34.2804 21.9507 34.6794C22.6456 35.0783 23.5474 34.8189 23.9648 34.1Z" fill="#1E4DD8"/>
<path fill-rule="evenodd" clip-rule="evenodd" d="M39.2835 24.5665C30.3002 24.5665 21.3168 24.5667 12.3335 24.5664V40.7665C12.3335 42.0865 13.4335 43.1665 14.7779 43.1665H39.2224C40.5668 43.1665 41.6668 42.0865 41.6668 40.7665V26.9665C41.6668 25.6465 40.6279 24.6265 39.2835 24.5665ZM35.5557 38.9665C34.5168 38.9665 33.7224 38.1865 33.7224 37.1665C33.7224 36.1465 34.5168 35.3665 35.5557 35.3665C36.5946 35.3665 37.3891 36.1465 37.3891 37.1665C37.3891 38.1865 36.5335 38.9665 35.5557 38.9665Z" fill="#5FA4F8"/>
</g>
</svg>
