<svg width="41" height="41" viewBox="0 0 41 41" fill="none" xmlns="http://www.w3.org/2000/svg">
<path d="M14.1049 18.7168C6.49916 18.7168 0.333496 25.0752 0.333496 32.9186C0.333496 34.4025 1.49998 35.6055 2.9389 35.6055H27.7522C29.1911 35.6055 30.3576 34.4025 30.3576 32.9186C30.3576 25.0752 24.192 18.7168 16.5862 18.7168H14.1049Z" fill="#5FA4F8"/>
<path d="M15.4859 0C11.0814 0 7.51074 3.5706 7.51074 7.97518C7.51074 12.3798 11.0814 15.9503 15.4859 15.9503C19.8905 15.9503 23.4611 12.3798 23.4611 7.97518C23.4611 3.5706 19.8905 0 15.4859 0Z" fill="#5FA4F8"/>
<path fill-rule="evenodd" clip-rule="evenodd" d="M30.1607 39.9679C35.2437 39.9679 39.3644 35.8472 39.3644 30.7642C39.3644 25.6811 35.2437 21.5605 30.1607 21.5605C25.0776 21.5605 20.957 25.6811 20.957 30.7642C20.957 35.8472 25.0776 39.9679 30.1607 39.9679Z" fill="#1E4DD8" stroke="white" stroke-width="2"/>
<path fill-rule="evenodd" clip-rule="evenodd" d="M28.2074 27.5117C27.848 27.1523 27.2652 27.1523 26.9058 27.5118C26.5464 27.8712 26.5464 28.454 26.9058 28.8134L28.8585 30.7661L26.9065 32.718C26.547 33.0774 26.547 33.6602 26.9065 34.0197C27.2659 34.3791 27.8485 34.3791 28.208 34.0197L30.1602 32.0677L32.1123 34.0197C32.4717 34.3791 33.0545 34.3791 33.4139 34.0197C33.7733 33.6602 33.7733 33.0775 33.4139 32.7181L31.4618 30.7661L33.4145 28.8135C33.774 28.4541 33.774 27.8713 33.4146 27.5119C33.0552 27.1524 32.4725 27.1524 32.113 27.5118L30.1602 29.4645L28.2074 27.5117Z" fill="white"/>
</svg>
