<svg width="16" height="16" viewBox="0 0 16 16" fill="none" xmlns="http://www.w3.org/2000/svg">
<path d="M8 9.83333C7.72667 9.83333 7.5 9.60667 7.5 9.33333V6C7.5 5.72667 7.72667 5.5 8 5.5C8.27333 5.5 8.5 5.72667 8.5 6V9.33333C8.5 9.60667 8.27333 9.83333 8 9.83333Z" fill="#FFB82E"/>
<path d="M7.99967 12C7.95967 12 7.91301 11.9934 7.86634 11.9867C7.82634 11.98 7.78634 11.9667 7.74634 11.9467C7.70634 11.9334 7.66634 11.9134 7.62634 11.8867C7.59301 11.86 7.55967 11.8334 7.52634 11.8067C7.40634 11.68 7.33301 11.5067 7.33301 11.3334C7.33301 11.16 7.40634 10.9867 7.52634 10.86C7.55967 10.8334 7.59301 10.8067 7.62634 10.78C7.66634 10.7534 7.70634 10.7334 7.74634 10.72C7.78634 10.7 7.82634 10.6867 7.86634 10.68C7.95301 10.66 8.04634 10.66 8.12634 10.68C8.17301 10.6867 8.21301 10.7 8.25301 10.72C8.29301 10.7334 8.33301 10.7534 8.37301 10.78C8.40634 10.8067 8.43967 10.8334 8.47301 10.86C8.59301 10.9867 8.66634 11.16 8.66634 11.3334C8.66634 11.5067 8.59301 11.68 8.47301 11.8067C8.43967 11.8334 8.40634 11.86 8.37301 11.8867C8.33301 11.9134 8.29301 11.9334 8.25301 11.9467C8.21301 11.9667 8.17301 11.98 8.12634 11.9867C8.08634 11.9934 8.03967 12 7.99967 12Z" fill="#FFB82E"/>
<path d="M12.04 14.7732H3.95998C2.65998 14.7732 1.66665 14.2999 1.15998 13.4466C0.659984 12.5932 0.726651 11.4932 1.35998 10.3532L5.39998 3.08656C6.06665 1.88656 6.98665 1.22656 7.99998 1.22656C9.01332 1.22656 9.93332 1.88656 10.6 3.08656L14.64 10.3599C15.2733 11.4999 15.3466 12.5932 14.84 13.4532C14.3333 14.2999 13.34 14.7732 12.04 14.7732ZM7.99998 2.22656C7.37332 2.22656 6.75998 2.70656 6.27332 3.57323L2.23998 10.8466C1.78665 11.6599 1.71332 12.4066 2.02665 12.9466C2.33998 13.4866 3.03332 13.7799 3.96665 13.7799H12.0466C12.98 13.7799 13.6666 13.4866 13.9866 12.9466C14.3066 12.4066 14.2266 11.6666 13.7733 10.8466L9.72665 3.57323C9.23998 2.70656 8.62665 2.22656 7.99998 2.22656Z" fill="#FFB82E"/>
</svg>
