<svg width="18" height="15" viewBox="0 0 18 15" fill="none" xmlns="http://www.w3.org/2000/svg">
<path d="M7.66787 1.64658L1.06868 12.6634C0.932623 12.899 0.860631 13.1662 0.859869 13.4383C0.859108 13.7103 0.929602 13.9779 1.06434 14.2143C1.19908 14.4506 1.39336 14.6476 1.62787 14.7856C1.86237 14.9236 2.12891 14.9978 2.40099 15.0008H15.5993C15.8714 14.9978 16.138 14.9236 16.3725 14.7856C16.607 14.6476 16.8013 14.4506 16.936 14.2143C17.0707 13.9779 17.1412 13.7103 17.1405 13.4383C17.1397 13.1662 17.0677 12.899 16.9317 12.6634L10.3325 1.64658C10.1936 1.4176 9.99801 1.22828 9.76464 1.0969C9.53127 0.965508 9.26798 0.896484 9.00017 0.896484C8.73236 0.896484 8.46906 0.965508 8.23569 1.0969C8.00233 1.22828 7.80676 1.4176 7.66787 1.64658Z" fill="#FFB82E"/>
<path d="M9 5.65234V8.76884" stroke="white" stroke-width="1.4" stroke-linecap="round" stroke-linejoin="round"/>
<path d="M9 11.8848H9.00861" stroke="white" stroke-width="1.4" stroke-linecap="round" stroke-linejoin="round"/>
</svg>
