<svg width="20" height="20" viewBox="0 0 20 20" fill="none" xmlns="http://www.w3.org/2000/svg">
<path d="M8.75033 16.5837V3.41699C8.75033 2.16699 8.21699 1.66699 6.89199 1.66699H3.52533C2.20033 1.66699 1.66699 2.16699 1.66699 3.41699V16.5837C1.66699 17.8337 2.20033 18.3337 3.52533 18.3337H6.89199C8.21699 18.3337 8.75033 17.8337 8.75033 16.5837Z" stroke="#000080" stroke-width="1.4" stroke-linecap="round" stroke-linejoin="round"/>
<path d="M18.3333 9.08366V3.41699C18.3333 2.16699 17.8 1.66699 16.475 1.66699H13.1083C11.7833 1.66699 11.25 2.16699 11.25 3.41699V9.08366C11.25 10.3337 11.7833 10.8337 13.1083 10.8337H16.475C17.8 10.8337 18.3333 10.3337 18.3333 9.08366Z" stroke="#000080" stroke-width="1.4" stroke-linecap="round" stroke-linejoin="round"/>
<path d="M18.3333 16.583V15.083C18.3333 13.833 17.8 13.333 16.475 13.333H13.1083C11.7833 13.333 11.25 13.833 11.25 15.083V16.583C11.25 17.833 11.7833 18.333 13.1083 18.333H16.475C17.8 18.333 18.3333 17.833 18.3333 16.583Z" stroke="#000080" stroke-width="1.4" stroke-linecap="round" stroke-linejoin="round"/>
</svg>
