<svg width="55" height="55" viewBox="0 0 55 55" fill="none" xmlns="http://www.w3.org/2000/svg">
<rect width="55" height="55" rx="6" fill="#F1F6FF"/>
<path d="M33.9676 26.9785H40.7982C41.4062 26.9785 41.899 27.4714 41.899 28.0793V43.9422C41.899 44.5502 41.4062 45.043 40.7982 45.043H33.9676C33.3596 45.043 32.8668 44.5502 32.8668 43.9422V28.0793C32.8668 27.4714 33.3596 26.9785 33.9676 26.9785Z" fill="#5FA4F8"/>
<path d="M12.9764 36.0098H19.7505C20.3741 36.0098 20.8796 36.5153 20.8796 37.1388V43.913C20.8796 44.5365 20.3741 45.042 19.7505 45.042H12.9764C12.3528 45.042 11.8473 44.5365 11.8473 43.913V37.1388C11.8473 36.5153 12.3528 36.0098 12.9764 36.0098Z" fill="#5FA4F8"/>
<path d="M23.4578 31.4941H30.2885C30.8964 31.4941 31.3893 31.987 31.3893 32.5949V43.9417C31.3893 44.5497 30.8964 45.0425 30.2885 45.0425H23.4578C22.8499 45.0425 22.357 44.5497 22.357 43.9417V32.5949C22.357 31.987 22.8499 31.4941 23.4578 31.4941Z" fill="#5FA4F8"/>
<path fill-rule="evenodd" clip-rule="evenodd" d="M12.2789 31.7966C11.6959 31.2039 11.7037 30.2508 12.2964 29.6677L22.5263 19.6042C23.1117 19.0283 24.0507 19.0279 24.6367 19.6032L28.4581 23.3553L39.325 12.404C39.9107 11.8139 40.8638 11.8102 41.454 12.3958C42.0441 12.9814 42.0478 13.9345 41.4622 14.5247L29.5405 26.539C28.957 27.1268 28.0083 27.1331 27.4173 26.5527L23.5831 22.7881L14.4078 31.814C13.8151 32.3971 12.8619 32.3893 12.2789 31.7966Z" fill="#1E4DD8"/>
<path fill-rule="evenodd" clip-rule="evenodd" d="M33.6925 13.4644C33.6925 12.633 34.3665 11.959 35.198 11.959H40.3933C41.2247 11.959 41.8986 12.633 41.8986 13.4644V18.642C41.8986 19.4734 41.2247 20.1473 40.3933 20.1473C39.5619 20.1473 38.888 19.4734 38.888 18.642V14.9697H35.198C34.3665 14.9697 33.6925 14.2958 33.6925 13.4644Z" fill="#1E4DD8"/>
</svg>
