<svg width="17" height="16" viewBox="0 0 17 16" fill="none" xmlns="http://www.w3.org/2000/svg">
<path d="M14.8335 4.33301H13.2335C13.3335 3.93301 13.3335 3.53301 13.3335 3.13301C13.2335 2.83301 13.1335 2.53301 12.9335 2.23301C12.7335 1.93301 12.5335 1.73301 12.2335 1.63301C11.9335 1.53301 11.6335 1.33301 11.3335 1.33301C11.0335 1.33301 10.7335 1.33301 10.4335 1.53301C9.7335 1.73301 9.2335 2.23301 8.8335 2.83301C8.4335 2.23301 7.9335 1.73301 7.2335 1.53301C6.9335 1.43301 6.6335 1.33301 6.3335 1.33301C6.0335 1.33301 5.7335 1.43301 5.4335 1.63301C5.1335 1.73301 4.9335 1.93301 4.7335 2.23301C4.5335 2.43301 4.4335 2.83301 4.3335 3.13301C4.3335 3.53301 4.3335 3.93301 4.4335 4.33301H2.8335L2.3335 4.83301V13.833L2.8335 14.333H14.8335L15.3335 13.833V4.83301L14.8335 4.33301ZM8.3335 13.333H3.3335V5.33301H8.3335V13.333ZM8.3335 4.33301H5.3335V4.13301C5.2335 3.83301 5.2335 3.63301 5.2335 3.33301C5.3335 3.13301 5.3335 2.93301 5.5335 2.83301C5.6335 2.63301 5.8335 2.53301 6.0335 2.43301C6.1335 2.33301 6.3335 2.33301 6.5335 2.33301C6.7335 2.33301 6.9335 2.33301 7.1335 2.43301C7.4335 2.53301 7.7335 2.73301 7.9335 3.03301C8.1335 3.33301 8.3335 3.63301 8.3335 4.03301V4.33301ZM9.3335 4.03301C9.3335 3.63301 9.5335 3.33301 9.7335 3.03301C9.9335 2.73301 10.2335 2.53301 10.5335 2.43301C10.7335 2.33301 10.9335 2.33301 11.1335 2.33301C11.3335 2.33301 11.5335 2.33301 11.7335 2.43301C11.9335 2.53301 12.0335 2.63301 12.2335 2.83301C12.3335 2.93301 12.3335 3.13301 12.4335 3.33301C12.4335 3.63301 12.4335 3.83301 12.3335 4.13301C12.3335 4.23301 12.3335 4.23301 12.2335 4.33301H9.3335V4.03301ZM14.3335 13.333H9.3335V5.33301H14.3335V13.333Z" fill="#560BB5"/>
</svg>
