<svg width="45" height="45" viewBox="0 0 45 45" fill="none" xmlns="http://www.w3.org/2000/svg">
<path fill-rule="evenodd" clip-rule="evenodd" d="M4 8.26405C4 5.90909 5.90909 4 8.26406 4H15.7933C16.7353 4 17.4989 4.76364 17.4989 5.70563C17.4989 6.64761 16.7353 7.41124 15.7933 7.41124H8.26406C7.79306 7.41124 7.41124 7.79306 7.41124 8.26405V15.836C7.41124 16.7779 6.64761 17.5416 5.70563 17.5416C4.76364 17.5416 4 16.7779 4 15.836V8.26405ZM27.5403 5.70563C27.5403 4.76364 28.304 4 29.2459 4H36.736C39.0909 4 41 5.90909 41 8.26406V15.836C41 16.7779 40.2364 17.5416 39.2944 17.5416C38.3524 17.5416 37.5888 16.7779 37.5888 15.836V8.26406C37.5888 7.79307 37.2069 7.41124 36.736 7.41124H29.2459C28.304 7.41124 27.5403 6.64761 27.5403 5.70563ZM5.70563 27.5441C6.64761 27.5441 7.41124 28.3078 7.41124 29.2497V36.736C7.41124 37.2069 7.79307 37.5888 8.26406 37.5888H15.7933C16.7353 37.5888 17.4989 38.3524 17.4989 39.2944C17.4989 40.2364 16.7353 41 15.7933 41H8.26406C5.9091 41 4 39.0909 4 36.736V29.2497C4 28.3078 4.76364 27.5441 5.70563 27.5441ZM39.2944 27.5441C40.2364 27.5441 41 28.3078 41 29.2497V36.736C41 39.0909 39.0909 41 36.736 41H29.2459C28.304 41 27.5403 40.2364 27.5403 39.2944C27.5403 38.3524 28.304 37.5888 29.2459 37.5888H36.736C37.2069 37.5888 37.5888 37.2069 37.5888 36.736V29.2497C37.5888 28.3078 38.3524 27.5441 39.2944 27.5441Z" fill="#5FA4F8"/>
<path d="M21.5118 22.9375C16.2946 22.9375 12.0526 27.1795 12.0526 32.3967C12.0526 33.3719 12.8326 34.2008 13.8566 34.2008H30.8735C31.8486 34.2008 32.6775 33.4206 32.6775 32.3967C32.6775 27.1795 28.4355 22.9375 23.2183 22.9375H21.5118Z" fill="#1E4DD8"/>
<path d="M22.39 10.7969C19.4158 10.7969 17.0266 13.1861 17.0266 16.1604C17.0266 19.1346 19.4158 21.5726 22.39 21.5726C25.3643 21.5726 27.7535 19.1833 27.7535 16.1604C27.7535 13.2348 25.3643 10.7969 22.39 10.7969Z" fill="#1E4DD8"/>
</svg>
