<svg width="43" height="40" viewBox="0 0 43 40" fill="none" xmlns="http://www.w3.org/2000/svg">
<path d="M20.2726 4L24.6363 8.36362L20.2726 12.7272" stroke="#000080" stroke-width="1.5" stroke-linecap="round" stroke-linejoin="round"/>
<path d="M5 14.9087V12.7269C5 11.5696 5.45974 10.4597 6.27807 9.64135C7.09641 8.82302 8.20631 8.36328 9.36362 8.36328H24.6363" stroke="#000080" stroke-width="1.5" stroke-linecap="round" stroke-linejoin="round"/>
<path d="M9.36362 27.9997L5 23.6361L9.36362 19.2725" stroke="#000080" stroke-width="1.5" stroke-linecap="round" stroke-linejoin="round"/>
<path d="M24.6363 17.0908V19.2726C24.6363 20.4299 24.1765 21.5398 23.3582 22.3582C22.5399 23.1765 21.43 23.6362 20.2727 23.6362H5" stroke="#000080" stroke-width="1.5" stroke-linecap="round" stroke-linejoin="round"/>
<circle cx="31" cy="28" r="10.8027" fill="white" stroke="#000080"/>
<circle cx="30.7862" cy="27.77" r="6.65183" fill="white"/>
<path d="M34.2814 29.7075C34.2814 27.1002 29.4791 27.2705 29.4791 25.6963C29.4791 24.9344 30.2074 24.5622 31.0522 24.5622C32.4728 24.5622 32.7257 25.4757 33.3691 25.4757C33.8248 25.4757 34.0441 25.1886 34.0441 24.8667C34.0441 24.1187 32.9111 23.5526 31.8246 23.3565V22.6346C31.8246 22.4184 31.7388 22.211 31.586 22.0581C31.4333 21.9052 31.2261 21.8193 31.0101 21.8193C30.794 21.8193 30.5868 21.9052 30.4341 22.0581C30.2813 22.211 30.1955 22.4184 30.1955 22.6346V23.382C29.0109 23.6518 27.992 24.4742 27.992 25.8149C27.992 28.3192 32.7936 28.218 32.7936 29.977C32.7936 30.5864 32.1346 31.1957 31.0522 31.1957C29.4289 31.1957 28.888 30.096 28.2286 30.096C27.9074 30.096 27.6202 30.3665 27.6202 30.7743C27.6202 31.422 28.705 32.2017 30.1965 32.4195L30.1955 32.4246V33.2392C30.2016 33.4515 30.2902 33.6529 30.4423 33.8009C30.5945 33.9489 30.7983 34.0316 31.0104 34.0316C31.2225 34.0316 31.4263 33.9489 31.5785 33.8009C31.7306 33.6529 31.8191 33.4515 31.8253 33.2392V32.4246C31.8253 32.4151 31.8205 32.4076 31.8198 32.3991C33.162 32.1483 34.2814 31.2725 34.2814 29.7075Z" fill="#000080"/>
</svg>
