<svg width="53" height="42" viewBox="0 0 53 42" fill="none" xmlns="http://www.w3.org/2000/svg">
<circle cx="26.3698" cy="8.65801" r="8.15801" fill="white" stroke="#000080"/>
<circle cx="26.206" cy="8.48112" r="5.09537" fill="white"/>
<path d="M28.8832 9.96528C28.8832 7.96806 25.2046 8.09848 25.2046 6.89265C25.2046 6.309 25.7625 6.02394 26.4096 6.02394C27.4978 6.02394 27.6915 6.7237 28.1844 6.7237C28.5334 6.7237 28.7014 6.50373 28.7014 6.2572C28.7014 5.68422 27.8335 5.25051 27.0013 5.10031V4.54737C27.0013 4.38174 26.9355 4.22289 26.8185 4.10577C26.7015 3.98865 26.5428 3.92285 26.3773 3.92285C26.2118 3.92285 26.0531 3.98865 25.9361 4.10577C25.8191 4.22289 25.7534 4.38174 25.7534 4.54737V5.11983C24.8459 5.32653 24.0654 5.95652 24.0654 6.98351C24.0654 8.90185 27.7435 8.82427 27.7435 10.1717C27.7435 10.6385 27.2387 11.1052 26.4096 11.1052C25.1661 11.1052 24.7518 10.2628 24.2467 10.2628C24.0007 10.2628 23.7806 10.4701 23.7806 10.7824C23.7806 11.2786 24.6116 11.8758 25.7542 12.0427L25.7534 12.0466V12.6706C25.7581 12.8332 25.8259 12.9875 25.9424 13.1009C26.059 13.2142 26.2151 13.2776 26.3776 13.2776C26.5401 13.2776 26.6962 13.2142 26.8127 13.1009C26.9293 12.9875 26.9971 12.8332 27.0018 12.6706V12.0466C27.0018 12.0393 26.9981 12.0336 26.9976 12.0271C28.0257 11.8349 28.8832 11.1641 28.8832 9.96528Z" fill="#000080"/>
<path d="M42.8967 9.34543C42.2216 9.28627 41.5864 9.57409 41.1075 10.1554C40.5931 10.7801 40.2495 11.7355 40.0866 12.9944L39.3468 18.7139C39.2957 18.7162 39.2451 18.7202 39.1937 18.7258C38.5768 18.7937 38.0244 19.0961 37.6382 19.5779L35.0903 22.7557C32.0899 24.5772 31.9999 26.2207 32.1024 28.7406C32.1591 30.1311 32.1995 31.5359 32.2371 32.9669L31.9847 32.9668C31.2444 32.9666 30.641 33.5687 30.6404 34.309L30.6373 36.611C30.6369 36.9719 30.7757 37.3101 31.0289 37.5634C31.2821 37.817 31.6199 37.9566 31.9811 37.9566L41.3448 37.96C41.8941 37.9603 42.3676 37.6288 42.5761 37.1554C42.6486 36.9907 42.689 36.8088 42.689 36.6178L42.6922 34.3159C42.6926 33.9549 42.5538 33.6168 42.3007 33.3632C42.0478 33.11 41.7096 32.97 41.3485 32.97L40.4346 32.9694L40.3543 30.8784C40.3324 30.3179 40.4971 29.8364 40.8569 29.4062L43.8113 25.8744C44.0287 25.6145 44.201 25.3235 44.3385 25.0113C44.813 23.9335 44.8696 22.6102 44.9176 21.4981C44.9218 21.4002 44.9259 21.3041 44.9303 21.2103L45.3412 12.3256C45.4083 10.8839 44.2429 9.46321 42.8967 9.34543ZM41.6833 33.9805C41.7713 34.0689 41.8197 34.1877 41.8197 34.3151L41.8165 36.6171C41.8161 36.8761 41.605 37.0872 41.3454 37.087L31.9817 37.0836C31.8543 37.0834 31.7358 37.0349 31.6475 36.9469C31.5595 36.8585 31.5111 36.7398 31.5111 36.6123L31.5143 34.3104C31.5145 34.2435 31.5285 34.1795 31.5539 34.1219C31.6268 33.9563 31.7928 33.84 31.9849 33.8402L41.3487 33.8436C41.4767 33.8437 41.5952 33.8921 41.6833 33.9805ZM44.4692 12.2861L44.0582 21.1707C44.0539 21.2656 44.0497 21.3624 44.0453 21.4614C43.9892 22.7639 43.9199 24.3852 43.1418 25.3152L40.1878 28.8467C39.6899 29.4419 39.4526 30.1373 39.4822 30.9128L39.5613 32.97L33.1108 32.9676C33.0726 31.5251 33.0323 30.1088 32.9748 28.7054C32.8788 26.3553 32.9523 25.0551 35.6065 23.4647C35.6508 23.4379 35.6903 23.4039 35.7226 23.3633L38.3191 20.1251C38.5592 19.8255 38.9036 19.6371 39.2889 19.595C39.6739 19.5527 40.051 19.6617 40.3506 19.9018C40.6502 20.1418 40.8386 20.4862 40.8807 20.8716C40.923 21.2565 40.8144 21.6338 40.5739 21.9332L37.1234 26.2369C36.9724 26.4249 37.0029 26.6997 37.1909 26.8507C37.3789 27.0017 37.6537 26.9712 37.8047 26.7832L41.2553 22.4795C41.6414 21.998 41.8167 21.3931 41.7486 20.7761C41.6807 20.1591 41.3783 19.6068 40.8968 19.2206C40.6883 19.0532 40.4567 18.9257 40.2106 18.8404L40.9522 13.1083C41.197 11.2168 41.8952 10.136 42.8201 10.2169C43.6971 10.293 44.5139 11.3182 44.4692 12.2861Z" fill="#000080"/>
<path d="M10.0367 9.34389C10.7118 9.28501 11.3469 9.5731 11.8255 10.1546C12.3397 10.7795 12.6828 11.7351 12.8452 12.994L13.5826 18.7138C13.6337 18.7162 13.6843 18.7202 13.7357 18.7259C14.3526 18.794 14.9048 19.0967 15.2908 19.5786L17.8373 22.7575C20.8371 24.5803 20.9263 26.2238 20.8227 28.7436C20.7655 30.1341 20.7245 31.5389 20.6862 32.9698L20.9387 32.9699C21.6789 32.9699 22.2821 33.5723 22.2824 34.3127L22.2845 36.6146C22.2848 36.9755 22.1459 37.3137 21.8925 37.5669C21.6392 37.8204 21.3013 37.9598 20.9402 37.9597L11.5764 37.9591C11.0272 37.9592 10.5538 37.6275 10.3455 37.154C10.273 36.9892 10.2327 36.8073 10.2328 36.6164L10.2306 34.3144C10.2303 33.9535 10.3693 33.6154 10.6225 33.3619C10.8755 33.1088 11.2137 32.969 11.5749 32.9691L12.4888 32.9689L12.57 30.8779C12.5921 30.3175 12.4276 29.8359 12.068 29.4056L9.11505 25.8725C8.89778 25.6125 8.72563 25.3214 8.58828 25.0091C8.11417 23.9312 8.05812 22.6078 8.01062 21.4957C8.0065 21.3978 8.0024 21.3017 7.99809 21.2079L7.5909 12.3231C7.52441 10.8813 8.6904 9.4611 10.0367 9.34389ZM11.2397 33.9795C11.1516 34.0678 11.1031 34.1866 11.1031 34.3141L11.1053 36.616C11.1056 36.875 11.3166 37.0862 11.5762 37.0861L20.9399 37.0867C21.0673 37.0865 21.1859 37.0381 21.2742 36.9501C21.3623 36.8618 21.4107 36.743 21.4107 36.6156L21.4085 34.3136C21.4084 34.2467 21.3943 34.1827 21.369 34.1252C21.2962 33.9596 21.1302 33.8431 20.9381 33.8433L11.5743 33.8427C11.4463 33.8427 11.3278 33.8911 11.2397 33.9795ZM8.46294 12.2839L8.87014 21.1687C8.87441 21.2635 8.87857 21.3604 8.88293 21.4594C8.9385 22.7619 9.00709 24.3832 9.78477 25.3136L12.7373 28.8463C13.235 29.4417 13.472 30.1372 13.442 30.9127L13.3621 32.9699L19.8126 32.9702C19.8514 31.5277 19.8923 30.1114 19.9504 28.7081C20.0473 26.358 19.9744 25.0578 17.3209 23.4663C17.2766 23.4394 17.2371 23.4054 17.2048 23.3648L14.6097 20.1255C14.3697 19.8258 14.0255 19.6373 13.6401 19.595C13.2551 19.5525 12.878 19.6614 12.5783 19.9013C12.2786 20.1412 12.0901 20.4855 12.0478 20.8709C12.0053 21.2558 12.1138 21.6331 12.3541 21.9326L15.8029 26.2378C15.9538 26.4259 15.9231 26.7007 15.7351 26.8516C15.547 27.0025 15.2722 26.9719 15.1213 26.7838L11.6725 22.4787C11.2866 21.9969 11.1115 21.392 11.1799 20.775C11.248 20.1581 11.5507 19.6059 12.0324 19.2199C12.241 19.0526 12.4726 18.9252 12.7188 18.8399L11.9795 13.1076C11.7355 11.216 11.0379 10.1348 10.1129 10.2154C9.23588 10.2911 8.41863 11.316 8.46294 12.2839Z" fill="#000080"/>
</svg>
