<svg width="45" height="37" viewBox="0 0 45 37" fill="none" xmlns="http://www.w3.org/2000/svg">
<path d="M14.4352 17.0893C12.1689 17.0893 9.99562 16.1892 8.39315 14.5867C6.79067 12.9842 5.8905 10.8109 5.8905 8.54466C5.8905 6.27843 6.79067 4.10511 8.39315 2.50264C9.99562 0.900172 12.1689 0 14.4352 0C16.7014 0 18.8747 0.900172 20.4772 2.50264C22.0797 4.10511 22.9798 6.27843 22.9798 8.54466C22.9765 10.8097 22.0752 12.9814 20.4736 14.5832C18.8718 16.1847 16.7002 17.086 14.4351 17.0894L14.4352 17.0893ZM14.4352 1.2558C12.5021 1.2558 10.6482 2.02373 9.2812 3.39052C7.91441 4.75755 7.14648 6.61141 7.14648 8.54448C7.14648 10.4776 7.91441 12.3314 9.2812 13.6984C10.6482 15.0652 12.5021 15.8332 14.4352 15.8332C16.3682 15.8332 18.2221 15.0652 19.5891 13.6984C20.9559 12.3314 21.7239 10.4776 21.7239 8.54448C21.7217 6.61214 20.9531 4.75944 19.5865 3.39313C18.2202 2.02659 16.3675 1.25793 14.4352 1.2558Z" fill="#00006D"/>
<path d="M16.8468 19.2326C16.7949 19.2181 16.7417 19.2098 16.6877 19.2074C15.9431 19.088 15.1898 19.0278 14.4354 19.0273C13.7025 19.0278 12.9704 19.0839 12.246 19.1948C12.1644 19.1945 12.0835 19.2086 12.0072 19.2366C8.65048 19.8146 5.60524 21.5591 3.40854 24.1623C1.21196 26.7656 0.0049925 30.0607 0 33.4666C0 33.8134 0.281352 34.0944 0.628081 34.0944C0.974835 34.0944 1.25592 33.8133 1.25592 33.4666C1.25925 30.415 2.31975 27.4588 4.25708 25.1011C6.19417 22.7435 8.88854 21.1296 11.8816 20.5343L12.8403 22.5354L10.1065 29.7952C10.0085 30.0571 10.0955 30.3525 10.32 30.5194L14.0628 33.2951C14.1862 33.3784 14.3327 33.4207 14.4816 33.4164C14.6155 33.4169 14.746 33.3743 14.854 33.2951L18.5927 30.5194C18.8184 30.3534 18.9059 30.0571 18.8062 29.7952L16.0598 22.561L17.0228 20.543V20.5432C20.0111 21.1413 22.7005 22.7555 24.6345 25.1112C26.5683 27.4668 27.6271 30.4193 27.6316 33.4669C27.6316 33.8136 27.9128 34.0947 28.2597 34.0947C28.6065 34.0947 28.8876 33.8136 28.8876 33.4669C28.8833 30.0548 27.672 26.7544 25.4685 24.1492C23.2651 21.5443 20.2111 19.8026 16.8467 19.2325L16.8468 19.2326ZM17.4497 29.7954L14.448 32.0184L11.4505 29.7911L13.9624 23.1347H14.942L17.4497 29.7954ZM14.9922 21.8786H13.9163L13.1838 20.3463C13.6023 20.3087 14.0212 20.2835 14.4397 20.2835C14.8583 20.2835 15.3021 20.3087 15.7293 20.3506L14.9922 21.8786Z" fill="#00006D"/>
<circle cx="33.1903" cy="25.3506" r="10.8027" fill="white" stroke="#000080"/>
<circle cx="32.9765" cy="25.1206" r="6.65183" fill="white"/>
<path d="M36.4717 27.0581C36.4717 24.4508 31.6694 24.6211 31.6694 23.0469C31.6694 22.285 32.3976 21.9128 33.2424 21.9128C34.663 21.9128 34.9159 22.8263 35.5594 22.8263C36.015 22.8263 36.2343 22.5392 36.2343 22.2173C36.2343 21.4693 35.1013 20.9031 34.0148 20.707V19.9852C34.0148 19.769 33.929 19.5616 33.7763 19.4087C33.6235 19.2558 33.4163 19.1699 33.2003 19.1699C32.9843 19.1699 32.7771 19.2558 32.6243 19.4087C32.4716 19.5616 32.3858 19.769 32.3858 19.9852V20.7325C31.2011 21.0024 30.1822 21.8248 30.1822 23.1655C30.1822 25.6698 34.9839 25.5686 34.9839 27.3276C34.9839 27.9369 34.3248 28.5463 33.2424 28.5463C31.6191 28.5463 31.0782 27.4466 30.4189 27.4466C30.0977 27.4466 29.8104 27.7171 29.8104 28.1249C29.8104 28.7726 30.8952 29.5522 32.3868 29.7701L32.3858 29.7752V30.5898C32.3919 30.802 32.4804 31.0035 32.6326 31.1515C32.7847 31.2994 32.9885 31.3822 33.2006 31.3822C33.4128 31.3822 33.6166 31.2994 33.7687 31.1515C33.9209 31.0035 34.0094 30.802 34.0155 30.5898V29.7752C34.0155 29.7657 34.0108 29.7582 34.0101 29.7497C35.3522 29.4989 36.4717 28.6231 36.4717 27.0581Z" fill="#000080"/>
</svg>
