<svg width="40" height="40" viewBox="0 0 40 40" fill="none" xmlns="http://www.w3.org/2000/svg">
<path d="M39.3564 25.7934C39.0827 24.9875 38.4304 24.4031 37.5199 24.1469C36.5416 23.8718 35.2695 23.9604 33.7401 24.4103L26.7916 26.4546C26.7631 26.397 26.7329 26.3408 26.7004 26.2847C26.3101 25.6099 25.683 25.1281 24.9338 24.928L19.9916 23.6078C16.3794 21.0809 14.4449 21.8092 11.6004 23.2024C10.0308 23.9712 8.43661 24.7287 6.81084 25.4962L6.68312 25.2059C6.30882 24.355 5.31132 23.9662 4.46009 24.3402L1.8126 25.5016C1.39753 25.6838 1.07908 26.0144 0.916042 26.4338C0.752691 26.8531 0.763237 27.3121 0.945975 27.7272L5.68112 38.4917C5.95879 39.1231 6.57943 39.4997 7.2291 39.4997C7.45517 39.4997 7.68465 39.4541 7.90416 39.3574L10.5516 38.196C10.9667 38.0139 11.2852 37.6832 11.4485 37.2639C11.6116 36.8451 11.6013 36.3856 11.4186 35.9705L10.9567 34.9197L13.3195 33.7691C13.9526 33.4604 14.5895 33.4059 15.266 33.6017L20.8207 35.2101C21.2295 35.3285 21.6511 35.3792 22.0796 35.3792C23.5586 35.3792 25.1082 34.7745 26.4108 34.2668C26.5254 34.2221 26.638 34.1782 26.748 34.1357L37.1681 30.1115C38.8592 29.459 39.9024 27.4005 39.3564 25.7934ZM10.4265 36.8667C10.3695 37.0126 10.2574 37.1284 10.1109 37.1928L7.46341 38.3542C7.1655 38.4848 6.816 38.3491 6.68486 38.0506L1.94971 27.2861C1.88557 27.1395 1.88129 26.9788 1.93774 26.8328C1.99475 26.6868 2.10679 26.5711 2.25332 26.5067L4.90081 25.3453C4.97778 25.3116 5.05846 25.2954 5.13742 25.2954C5.36463 25.2954 5.58243 25.4274 5.67936 25.6483L10.4145 36.4128C10.4792 36.5599 10.4835 36.7207 10.4265 36.8667ZM36.7722 29.0892L26.3521 33.1134C26.2409 33.1564 26.1275 33.2006 26.0115 33.2457C24.486 33.8403 22.5874 34.5813 21.1247 34.1576L15.5705 32.5495C14.6343 32.2784 13.7149 32.3576 12.8386 32.7841L10.5141 33.9162L7.25222 26.5007C8.89083 25.7268 10.4984 24.9636 12.0823 24.1873C14.735 22.8876 16.2667 22.3141 19.4379 24.5599C19.4913 24.5973 19.5503 24.6255 19.6133 24.642L24.6495 25.9876C25.1153 26.1119 25.5061 26.4124 25.7496 26.834C25.993 27.2551 26.0586 27.7437 25.9343 28.2096C25.81 28.6754 25.5095 29.0662 25.0879 29.3097C24.6668 29.5531 24.1782 29.6193 23.7123 29.4944L17.0193 27.7064C16.7268 27.628 16.4263 27.8022 16.3479 28.0947C16.2695 28.3871 16.4437 28.6876 16.7362 28.766L23.4293 30.554C24.1782 30.7541 24.9621 30.6495 25.6369 30.259C26.3117 29.8687 26.7935 29.2415 26.9936 28.4926C27.0805 28.1682 27.1099 27.8375 27.0834 27.5114L34.0473 25.4629C36.3453 24.787 37.9409 25.0424 38.316 26.1465C38.6723 27.193 37.9073 28.6507 36.7722 29.0892ZM25.634 19.1318C30.6881 19.1318 34.7995 15.0199 34.7995 9.96631C34.7995 4.91275 30.6876 0.800781 25.634 0.800781C20.5799 0.800781 16.4685 4.91275 16.4685 9.96631C16.4685 15.0199 20.5799 19.1318 25.634 19.1318ZM25.634 1.89694C30.0832 1.89694 33.7034 5.51688 33.7034 9.96631C33.7034 14.4155 30.0834 18.0357 25.634 18.0357C21.1846 18.0357 17.5646 14.4157 17.5646 9.96631C17.5649 5.5171 21.1843 1.89694 25.634 1.89694ZM22.7687 7.93543C22.7687 6.66624 23.7621 5.60548 25.0764 5.368L25.0581 4.60427C25.051 4.30152 25.2905 4.05007 25.5932 4.04267C25.898 4.03497 26.1474 4.27501 26.1548 4.57775L26.1739 5.38396C26.8809 5.53734 27.7712 5.94842 28.1475 6.52113C28.314 6.77457 28.2436 7.11409 27.9904 7.28056C27.7376 7.44704 27.3975 7.37663 27.231 7.12349C27.022 6.80534 26.1417 6.41479 25.6337 6.41479C24.6588 6.41479 23.8654 7.0967 23.8654 7.93539C23.8654 8.77409 24.6585 9.456 25.6337 9.456C27.2136 9.456 28.4987 10.6302 28.4987 12.0733C28.4987 13.3416 27.5055 14.4024 26.1927 14.6404L26.2092 15.328C26.2164 15.6308 25.9769 15.8822 25.6742 15.8896H25.6605C25.3637 15.8896 25.1197 15.653 25.1126 15.3545L25.0955 14.6487C24.3015 14.519 23.7984 14.1048 23.3185 13.6518C23.0985 13.444 23.0882 13.0967 23.296 12.8767C23.5038 12.656 23.8508 12.6463 24.0711 12.8541C24.6242 13.3755 24.9635 13.5939 25.6331 13.5939C26.608 13.5939 27.4014 12.912 27.4014 12.0733C27.4014 11.2346 26.6083 10.5527 25.6331 10.5527C24.054 10.5527 22.7687 9.37846 22.7687 7.93543Z" fill="#000080"/>
</svg>
