<svg width="19" height="18" viewBox="0 0 19 18" fill="none" xmlns="http://www.w3.org/2000/svg">
<path d="M3.06757 14C2.7573 14 2.5 13.7474 2.5 13.4429V5.27143C2.5 1.99543 3.51405 1 6.85135 1H12.1486C15.4859 1 16.5 1.99543 16.5 5.27143V12.7C16.5 12.8189 16.5 12.9303 16.4924 13.0491C16.4697 13.3537 16.1897 13.5914 15.887 13.5691C15.5768 13.5469 15.3346 13.2794 15.3573 12.9749C15.3649 12.8857 15.3649 12.7891 15.3649 12.7V5.27143C15.3649 2.61943 14.8578 2.11429 12.1486 2.11429H6.85135C4.14216 2.11429 3.63514 2.61943 3.63514 5.27143V13.4429C3.63514 13.7474 3.37784 14 3.06757 14Z" fill="#4183FF"/>
<path d="M13.2838 17H5.71622C3.94541 17 2.5 15.6518 2.5 14V13.5412C2.5 12.1365 3.72595 11 5.22432 11H15.9324C16.2427 11 16.5 11.24 16.5 11.5294V14C16.5 15.6518 15.0546 17 13.2838 17ZM5.22432 12.0588C4.34649 12.0588 3.63514 12.7224 3.63514 13.5412V14C3.63514 15.0729 4.56595 15.9412 5.71622 15.9412H13.2838C14.4341 15.9412 15.3649 15.0729 15.3649 14V12.0588H5.22432Z" fill="#4183FF"/>
<path d="M12.8684 6H6.13158C5.78632 6 5.5 5.77333 5.5 5.5C5.5 5.22667 5.78632 5 6.13158 5H12.8684C13.2137 5 13.5 5.22667 13.5 5.5C13.5 5.77333 13.2137 6 12.8684 6Z" fill="#4183FF"/>
<path d="M9.92308 8H6.07692C5.76154 8 5.5 7.77333 5.5 7.5C5.5 7.22667 5.76154 7 6.07692 7H9.92308C10.2385 7 10.5 7.22667 10.5 7.5C10.5 7.77333 10.2385 8 9.92308 8Z" fill="#4183FF"/>
</svg>
