<svg width="13" height="16" viewBox="0 0 13 16" fill="none" xmlns="http://www.w3.org/2000/svg">
<path d="M8.94548 4.57314C9.06917 4.44121 9.16383 4.28025 9.21837 4.1013H11.6612C11.853 4.1013 12.0083 3.94176 12.0083 3.74463C12.0083 3.5476 11.8528 3.38795 11.6612 3.38795L9.77046 3.38807L11.0698 2.05295C11.2053 1.91361 11.2053 1.68767 11.0698 1.54836C10.9342 1.40937 10.7144 1.40937 10.5789 1.54836L9.12307 3.0443C8.96279 2.75105 8.68568 2.53405 8.35687 2.46028L8.7155 1.15899C8.79198 0.881607 8.73894 0.59082 8.56985 0.360916C8.40111 0.131584 8.14399 0 7.86426 0H4.93552C4.65589 0 4.39865 0.131584 4.22981 0.360916C4.06073 0.590835 4.00768 0.881598 4.08416 1.15875L4.4428 2.46016C3.92068 2.57729 3.52844 3.05594 3.52844 3.62715V3.74463C3.52844 4.06609 3.6526 4.35813 3.85427 4.57315C1.90963 6.00424 0.399902 9.01482 0.399902 11.6029C0.400017 14.562 2.3626 16.0004 6.3999 16.0004C10.4372 16.0004 12.3999 14.5619 12.3999 11.6029C12.3999 9.01479 10.8903 6.00418 8.94553 4.57315L8.94548 4.57314ZM4.78343 0.791342C4.80481 0.762205 4.85306 0.71333 4.93537 0.71333H7.86411C7.94642 0.71333 7.99466 0.762086 8.01604 0.791342C8.03753 0.820478 8.07035 0.88204 8.04759 0.964515L7.64289 2.43284H5.15647L4.75176 0.964275C4.72901 0.882034 4.76171 0.820474 4.78332 0.791336L4.78343 0.791342ZM4.22256 3.62733C4.22256 3.36205 4.43258 3.14611 4.6906 3.14611H8.10897C8.36711 3.14611 8.57712 3.36205 8.57712 3.62733V3.74482C8.57712 4.0101 8.36711 4.22604 8.10897 4.22604H4.6906C4.43246 4.22604 4.22256 4.0101 4.22256 3.74482V3.62733ZM6.39976 15.2873C2.78003 15.2873 1.09397 14.1166 1.09397 11.603C1.09397 9.07503 2.65003 6.11555 4.58316 4.93415C4.61849 4.93744 4.65427 4.93932 4.69051 4.93932H8.10888C8.14512 4.93932 8.1809 4.93756 8.21623 4.93415C10.1495 6.11582 11.7054 9.07506 11.7054 11.603C11.7054 14.1166 10.0195 15.2873 6.39964 15.2873H6.39976Z" fill="#122E82"/>
<path d="M6.19156 8.47852H7.44249C7.63421 8.47852 7.78956 8.31897 7.78956 8.12184C7.78956 7.92482 7.63408 7.76517 7.44249 7.76517L6.74705 7.76529V7.18773C6.74705 6.99071 6.59157 6.83105 6.39997 6.83105C6.20825 6.83105 6.0529 6.9906 6.0529 7.18773V7.77374C5.46677 7.84447 5.0105 8.358 5.0105 8.9789C5.0105 9.6481 5.54037 10.1924 6.19156 10.1924H6.6085C6.87693 10.1924 7.09529 10.4171 7.09529 10.6929C7.09529 10.9688 6.87694 11.1932 6.6085 11.1932H5.35757C5.16585 11.1932 5.0105 11.3527 5.0105 11.5499C5.0105 11.7469 5.16598 11.9065 5.35757 11.9065H6.0529V12.484C6.0529 12.681 6.20838 12.8406 6.39997 12.8406C6.59169 12.8406 6.74705 12.6811 6.74705 12.484V11.8982C7.33317 11.8274 7.78945 11.3139 7.78945 10.693C7.78945 10.0237 7.25957 9.47928 6.60838 9.47928H6.19145C5.92301 9.47928 5.70465 9.25488 5.70465 8.97902C5.70465 8.70293 5.92312 8.47852 6.19156 8.47852V8.47852Z" fill="#122E82"/>
</svg>
