<svg width="80" height="80" viewBox="0 0 80 80" fill="none" xmlns="http://www.w3.org/2000/svg">
<path d="M72.9603 44.9998C70.547 61.0365 56.7103 73.3332 40.0003 73.3332C21.5903 73.3332 6.66699 58.4098 6.66699 39.9998C6.66699 21.5898 21.5903 6.6665 40.0003 6.6665C53.667 6.6665 65.417 14.8932 70.5603 26.6665" stroke="#4B5E6E" stroke-width="1.5" stroke-linecap="round" stroke-linejoin="round"/>
<path d="M56.667 26.6667H71.3337C71.5963 26.6667 71.8564 26.6149 72.099 26.5144C72.3417 26.4139 72.5622 26.2666 72.7479 26.0809C72.9336 25.8952 73.0809 25.6747 73.1814 25.432C73.2819 25.1894 73.3337 24.9293 73.3337 24.6667V10" stroke="#4B5E6E" stroke-width="1.5" stroke-linecap="round" stroke-linejoin="round"/>
<path d="M51.6667 38.3335H28.3333C26.4924 38.3335 25 39.8259 25 41.6668V53.3335C25 55.1744 26.4924 56.6668 28.3333 56.6668H51.6667C53.5076 56.6668 55 55.1744 55 53.3335V41.6668C55 39.8259 53.5076 38.3335 51.6667 38.3335Z" stroke="#4B5E6E" stroke-width="1.4" stroke-linecap="round" stroke-linejoin="round"/>
<path d="M31.667 38.3335V31.6668C31.667 29.4567 32.545 27.3371 34.1078 25.7743C35.6706 24.2115 37.7902 23.3335 40.0003 23.3335C42.2105 23.3335 44.3301 24.2115 45.8929 25.7743C47.4557 27.3371 48.3337 29.4567 48.3337 31.6668V38.3335" stroke="#4B5E6E" stroke-width="1.4" stroke-linecap="round" stroke-linejoin="round"/>
</svg>
