<svg width="146" height="146" viewBox="0 0 146 146" fill="none" xmlns="http://www.w3.org/2000/svg">
<circle cx="73" cy="73" r="73" fill="#FAFAFA"/>
<path d="M61.8387 43.9131H79.2936L77.064 41.693H55.2825C53.9164 41.693 52.6749 42.2478 51.7757 43.1457C50.8764 44.0411 50.3168 45.2773 50.3168 46.6376V94.4497C50.3168 95.812 50.8764 97.0462 51.7757 97.9436C52.4236 98.5888 53.2473 99.0576 54.1677 99.2683V51.5513C54.1677 49.4471 55.0292 47.5383 56.4184 46.155C57.8076 44.7716 59.7264 43.9139 61.8377 43.9139L61.8387 43.9131ZM83.1176 43.9131H84.1794C84.5465 43.9131 84.8951 44.0602 85.1503 44.3232L98.4281 57.5448C98.6922 57.7989 98.84 58.146 98.84 58.5116V99.3625C98.84 101.467 97.9784 103.376 96.5893 104.759C95.2001 106.142 93.2813 107 91.17 107H61.8385C59.7253 107 57.8084 106.142 56.4191 104.759C55.6568 104 55.0554 103.083 54.6647 102.062C52.7984 101.913 51.1157 101.092 49.8639 99.8459C48.4747 98.4626 47.6133 96.5538 47.6133 94.4495V46.6375C47.6133 44.5333 48.4748 42.6245 49.8639 41.2411C51.2532 39.8578 53.1701 39 55.2833 39H77.624C78.004 39 78.3481 39.1554 78.593 39.4077L83.1176 43.9131ZM64.7378 92.8601C63.9907 92.8601 63.3844 92.2569 63.3844 91.5124C63.3844 90.7685 63.9901 90.1647 64.7378 90.1647H88.2711C89.0182 90.1647 89.6245 90.7679 89.6245 91.5124C89.6245 92.2564 89.0188 92.8601 88.2711 92.8601H64.7378ZM64.7378 78.6C63.9907 78.6 63.3844 77.9968 63.3844 77.2523C63.3844 76.5083 63.9901 75.9046 64.7378 75.9046H88.2711C89.0182 75.9046 89.6245 76.5078 89.6245 77.2523C89.6245 77.9962 89.0188 78.6 88.2711 78.6H64.7378ZM64.7378 85.7287C63.9907 85.7287 63.3844 85.1255 63.3844 84.381C63.3844 83.637 63.9901 83.0333 64.7378 83.0333H88.2711C89.0182 83.0333 89.6245 83.6365 89.6245 84.381C89.6245 85.1249 89.0188 85.7287 88.2711 85.7287H64.7378ZM64.7378 71.4685C63.9907 71.4685 63.3844 70.8653 63.3844 70.1208C63.3844 69.3769 63.9901 68.7731 64.7378 68.7731H88.2711C89.0182 68.7731 89.6245 69.3763 89.6245 70.1208C89.6245 70.8648 89.0188 71.4685 88.2711 71.4685H64.7378ZM85.5329 48.5079V52.2183C85.5329 53.5806 86.09 54.8148 86.9917 55.7123C87.891 56.6077 89.1324 57.1631 90.4985 57.1631H94.2248L85.5329 48.5079ZM82.8286 46.603H61.8412C60.4731 46.603 59.2337 47.1578 58.3324 48.0556C57.4331 48.9511 56.8754 50.1873 56.8754 51.5476V99.3784C56.8798 100.732 57.437 101.96 58.3324 102.851C59.2317 103.747 60.4731 104.304 61.8412 104.304H91.1727C92.5388 104.304 93.7803 103.749 94.6815 102.851C95.5808 101.956 96.1404 100.72 96.1404 99.3594V59.8537H90.5012C88.388 59.8537 86.4711 58.9958 85.0819 57.6125C83.6926 56.2292 82.8312 54.3204 82.8312 52.2162V46.6033L82.8286 46.603Z" fill="#C8C8FF"/>
<path d="M51 53.3327C58.3638 53.3327 64.3333 47.3631 64.3333 39.9993C64.3333 32.6356 58.3638 26.666 51 26.666C43.6362 26.666 37.6666 32.6356 37.6666 39.9993C37.6666 47.3631 43.6362 53.3327 51 53.3327Z" fill="#FAFAFA" stroke="#C8C8FF" stroke-width="3" stroke-linecap="round" stroke-linejoin="round"/>
<path d="M51 34.666V39.9993" stroke="#C8C8FF" stroke-width="3" stroke-linecap="round" stroke-linejoin="round"/>
<path d="M51 45.334H51.0146" stroke="#C8C8FF" stroke-width="3" stroke-linecap="round" stroke-linejoin="round"/>
</svg>
