<svg width="45" height="45" viewBox="0 0 45 45" fill="none" xmlns="http://www.w3.org/2000/svg">
<path fill-rule="evenodd" clip-rule="evenodd" d="M0 7.125C0 5.26104 1.51104 3.75 3.375 3.75H32.25C34.1139 3.75 35.625 5.26104 35.625 7.125V16.9878C35.4462 16.9752 35.2656 16.9688 35.0835 16.9688C30.904 16.9688 27.5158 20.3569 27.5158 24.5365C27.5158 26.7988 28.5084 28.8292 30.0819 30.216C26.2882 31.7004 23.4936 35.1933 22.8641 39.3749H3.375C1.51103 39.3749 0 37.864 0 35.9999V7.125ZM35.625 33.9497V36.0001C35.625 37.864 34.1139 39.3749 32.25 39.3749H27.4446C28.2162 36.2193 30.9762 33.9497 34.1628 33.9497H35.625ZM35.625 21.5164V27.5566C35.4492 27.5879 35.2683 27.6043 35.0835 27.6043C33.3892 27.6043 32.0158 26.2308 32.0158 24.5365C32.0158 22.8423 33.3892 21.4688 35.0835 21.4688C35.2683 21.4688 35.4492 21.4851 35.625 21.5164ZM6.37471 20.6249C6.37471 21.2462 6.8784 21.7499 7.49971 21.7499H16.8747C17.496 21.7499 17.9997 21.2462 17.9997 20.6249V11.2499C17.9997 10.6286 17.496 10.1249 16.8747 10.1249H7.49971C6.8784 10.1249 6.37471 10.6286 6.37471 11.2499V20.6249ZM8.62471 19.4999V12.3749H15.7497V19.4999H8.62471ZM23.6247 26.2499C23.6247 25.6286 23.121 25.1249 22.4997 25.1249H7.49971C6.8784 25.1249 6.37471 25.6286 6.37471 26.2499C6.37471 26.8712 6.8784 27.3749 7.49971 27.3749H22.4997C23.121 27.3749 23.6247 26.8712 23.6247 26.2499ZM18.7497 30.7499C19.371 30.7499 19.8747 31.2536 19.8747 31.8749C19.8747 32.4962 19.371 32.9999 18.7497 32.9999H7.49971C6.8784 32.9999 6.37471 32.4962 6.37471 31.8749C6.37471 31.2536 6.8784 30.7499 7.49971 30.7499H18.7497Z" fill="#5FA4F8"/>
<path d="M34.1628 31.6992C29.0914 31.6992 24.9802 35.9389 24.9802 41.1688C24.9802 42.1582 25.758 42.9604 26.7174 42.9604H43.2627C44.2221 42.9604 44.9999 42.1582 44.9999 41.1688C44.9999 35.9389 40.8887 31.6992 35.8173 31.6992H34.1628Z" fill="#1E4DD8"/>
<path d="M35.0835 19.2188C32.1466 19.2188 29.7658 21.5996 29.7658 24.5365C29.7658 27.4734 32.1466 29.8543 35.0835 29.8543C38.0204 29.8543 40.4012 27.4734 40.4012 24.5365C40.4012 21.5996 38.0204 19.2188 35.0835 19.2188Z" fill="#1E4DD8"/>
</svg>
