<svg width="84" height="84" viewBox="0 0 84 84" fill="none" xmlns="http://www.w3.org/2000/svg">
<path d="M42 77.0039C61.33 77.0039 77 61.3339 77 42.0039C77 22.6739 61.33 7.00391 42 7.00391C22.67 7.00391 7 22.6739 7 42.0039C7 61.3339 22.67 77.0039 42 77.0039Z" fill="#F6F9FF" stroke="#B7D0FF" stroke-linecap="round" stroke-linejoin="round"/>
<path d="M42.4215 44.7316C42.1765 44.6966 41.8615 44.6966 41.5815 44.7316C35.4215 44.5216 30.5215 39.4816 30.5215 33.2866C30.5215 26.9516 35.6315 21.8066 42.0015 21.8066C48.3365 21.8066 53.4815 26.9516 53.4815 33.2866C53.4465 39.4816 48.5815 44.5216 42.4215 44.7316Z" fill="#B7D0FF" stroke="#B7D0FF" stroke-linecap="round" stroke-linejoin="round"/>
<path d="M65.5901 67.829C59.3601 73.534 51.1002 76.999 42.0002 76.999C32.9002 76.999 24.6402 73.534 18.4102 67.829C18.7602 64.539 20.8602 61.319 24.6052 58.799C34.1952 52.429 49.8751 52.429 59.3951 58.799C63.1401 61.319 65.2401 64.539 65.5901 67.829Z" fill="#B7D0FF" stroke="#B7D0FF" stroke-linecap="round" stroke-linejoin="round"/>
</svg>
