<svg width="60" height="60" viewBox="0 0 60 60" fill="none" xmlns="http://www.w3.org/2000/svg">
<rect width="60" height="60" rx="6" fill="#9292FF"/>
<path d="M40.04 28.9609H19.88C18.2894 28.9609 17 30.2504 17 31.8409V41.9209C17 43.5115 18.2894 44.8009 19.88 44.8009H40.04C41.6306 44.8009 42.92 43.5115 42.92 41.9209V31.8409C42.92 30.2504 41.6306 28.9609 40.04 28.9609Z" stroke="white" stroke-width="1.4" stroke-linecap="round" stroke-linejoin="round"/>
<path d="M22.7598 28.96V23.2C22.7598 21.2904 23.5183 19.4591 24.8686 18.1088C26.2189 16.7586 28.0502 16 29.9598 16C31.8693 16 33.7007 16.7586 35.0509 18.1088C36.4012 19.4591 37.1598 21.2904 37.1598 23.2V28.96" stroke="white" stroke-width="1.4" stroke-linecap="round" stroke-linejoin="round"/>
</svg>
