<svg width="80" height="80" viewBox="0 0 80 80" fill="none" xmlns="http://www.w3.org/2000/svg">
<path d="M40 73.3332C58.4095 73.3332 73.3333 58.4093 73.3333 39.9998C73.3333 21.5903 58.4095 6.6665 40 6.6665C21.5905 6.6665 6.66666 21.5903 6.66666 39.9998C6.66666 58.4093 21.5905 73.3332 40 73.3332Z" stroke="#4B5E6E" stroke-width="1.5" stroke-linecap="round" stroke-linejoin="round"/>
<path d="M40.4 42.6004C40.1667 42.5671 39.8667 42.5671 39.6 42.6004C33.7333 42.4004 29.0667 37.6004 29.0667 31.7004C29.0667 25.6671 33.9333 20.7671 40 20.7671C46.0333 20.7671 50.9333 25.6671 50.9333 31.7004C50.9 37.6004 46.2667 42.4004 40.4 42.6004Z" stroke="#4B5E6E" stroke-width="1.5" stroke-linecap="round" stroke-linejoin="round"/>
<path d="M62.4668 64.5997C56.5335 70.033 48.6668 73.333 40.0001 73.333C31.3335 73.333 23.4668 70.033 17.5335 64.5997C17.8668 61.4664 19.8668 58.3997 23.4335 55.9997C32.5668 49.933 47.5001 49.933 56.5668 55.9997C60.1335 58.3997 62.1335 61.4664 62.4668 64.5997Z" stroke="#4B5E6E" stroke-width="1.5" stroke-linecap="round" stroke-linejoin="round"/>
</svg>
