<svg width="24" height="22" viewBox="0 0 24 22" fill="none" xmlns="http://www.w3.org/2000/svg">
<path d="M2.2035 13.0509C2.145 13.3247 2.1135 13.6097 2.1135 13.8947C2.1135 17.3402 6.516 20.1444 11.9258 20.1444C17.3355 20.1444 21.738 17.3394 21.738 13.8947C21.7383 13.6231 21.7109 13.3522 21.6563 13.0862L21.6405 13.0547C21.6221 13.0019 21.6129 12.9463 21.6135 12.8904C21.3128 11.7144 20.496 10.6479 19.3162 9.78469C19.2718 9.76798 19.2297 9.74554 19.191 9.71794C19.1667 9.6978 19.1444 9.67545 19.1243 9.65119C17.331 8.41669 14.769 7.64344 11.9288 7.64344C9.1125 7.64344 6.573 8.40094 4.7805 9.61594C4.76689 9.63369 4.75101 9.64958 4.73325 9.66319C4.69547 9.69805 4.64998 9.72349 4.6005 9.73744C3.3975 10.6007 2.56125 11.6747 2.24925 12.8627C2.24744 12.9219 2.2342 12.9802 2.21025 13.0344L2.2035 13.0509ZM11.9768 18.4884C10.1835 18.4884 8.922 18.1014 8.1135 17.2929C8.03086 17.2083 7.9846 17.0947 7.9846 16.9764C7.9846 16.8582 8.03086 16.7446 8.1135 16.6599C8.20054 16.5806 8.31408 16.5366 8.43188 16.5366C8.54967 16.5366 8.66321 16.5806 8.75025 16.6599C9.3795 17.2892 10.434 17.6049 11.9768 17.6049C13.5195 17.6049 14.5665 17.3042 15.1958 16.6749C15.36 16.5107 15.645 16.5107 15.825 16.6749C15.9893 16.8549 15.9893 17.1399 15.825 17.3192C15.0165 18.1277 13.7625 18.5184 11.9655 18.5184L11.9768 18.4884ZM8.37075 10.9187C7.4565 10.9187 6.69525 11.6844 6.69525 12.5942C6.69525 13.5039 7.45725 14.2427 8.37075 14.2427C9.285 14.2427 10.023 13.5047 10.023 12.5942C10.023 11.6837 9.2805 10.9187 8.37075 10.9187ZM15.6053 10.9187C14.691 10.9187 13.9253 11.6844 13.9253 12.5942C13.9253 13.5039 14.691 14.2427 15.6053 14.2427C16.5195 14.2427 17.2537 13.5047 17.2537 12.5942C17.2537 11.6837 16.5158 10.9187 15.6053 10.9187ZM20.1525 9.32044C21.1875 10.1567 21.9533 11.1444 22.3403 12.2267C22.5651 12.0583 22.7473 11.8394 22.8721 11.5877C22.9969 11.3361 23.0608 11.0586 23.0588 10.7777C23.0593 10.4401 22.9658 10.1091 22.7886 9.82173C22.6114 9.5344 22.3575 9.30219 22.0556 9.15119C21.7537 9.00019 21.4156 8.93639 21.0794 8.96695C20.7433 8.99751 20.4222 9.12122 20.1525 9.32419V9.32044ZM2.71125 8.96494C2.47265 8.96474 2.23635 9.01159 2.01587 9.10281C1.7954 9.19403 1.59507 9.32782 1.42635 9.49654C1.25764 9.66525 1.12384 9.86558 1.03262 10.0861C0.941405 10.3065 0.894554 10.5428 0.894751 10.7814C0.894751 11.3244 1.13325 11.8284 1.539 12.1719C1.93725 11.0897 2.71125 10.1169 3.75 9.29269C3.44507 9.0804 3.0828 8.96583 2.71125 8.96419V8.96494ZM11.9295 21.0437C6.02325 21.0437 1.21875 17.8367 1.21875 13.8992C1.21875 13.6254 1.242 13.3562 1.2855 13.0907C0.89198 12.8467 0.567326 12.5062 0.342346 12.1016C0.117366 11.6969 -0.000476241 11.2414 1.4465e-06 10.7784C1.4465e-06 9.28219 1.22625 8.06344 2.72625 8.06344C3.39825 8.06344 4.02675 8.30944 4.52325 8.74669C6.37875 7.55494 8.8785 6.80494 11.6325 6.75469L13.4453 1.23094L13.8518 1.32469C13.8518 1.32469 13.8675 1.32469 13.8675 1.32844L18.09 2.32069C18.2634 1.91739 18.5512 1.57371 18.9177 1.33207C19.2842 1.09043 19.7135 0.961407 20.1525 0.960938C21.3833 0.960938 22.3868 1.96519 22.3868 3.19519C22.3868 4.42519 21.3825 5.42944 20.1525 5.42944C19.562 5.42726 18.9963 5.19144 18.579 4.77351C18.1618 4.35557 17.9269 3.78949 17.9258 3.19894L14.0745 2.28469L12.606 6.76144C15.258 6.86719 17.6528 7.61719 19.4498 8.78494C19.9462 8.32008 20.6019 8.06298 21.282 8.06644C22.782 8.06644 24.0008 9.27769 24.0008 10.7777C24.0008 11.7624 23.4615 12.6602 22.6215 13.1409C22.653 13.3952 22.6838 13.6367 22.6838 13.8909C22.668 17.8284 17.8755 21.0317 11.961 21.0317L11.9295 21.0437ZM20.1053 1.85569C19.3673 1.85569 18.7658 2.45344 18.7658 3.19144C18.7658 3.92944 19.3673 4.53094 20.1053 4.53094C20.8395 4.53094 21.4373 3.93319 21.4373 3.19894C21.4373 2.46469 20.8395 1.86694 20.0895 1.86694L20.1053 1.85569Z" fill="#9E9E9E"/>
</svg>
