<svg width="40" height="41" viewBox="0 0 40 41" fill="none" xmlns="http://www.w3.org/2000/svg">
<path d="M0 8C0 3.85786 3.35786 0.5 7.5 0.5H32.5C36.6421 0.5 40 3.85786 40 8V33C40 37.1421 36.6421 40.5 32.5 40.5H7.5C3.35786 40.5 0 37.1421 0 33V8Z" fill="#E2ECFF"/>
<path d="M17 11C14.38 11 12.25 13.13 12.25 15.75C12.25 18.32 14.26 20.4 16.88 20.49C16.96 20.48 17.04 20.48 17.1 20.49C17.12 20.49 17.13 20.49 17.15 20.49C17.16 20.49 17.16 20.49 17.17 20.49C19.73 20.4 21.74 18.32 21.75 15.75C21.75 13.13 19.62 11 17 11Z" fill="#000080"/>
<path d="M22.08 23.1499C19.29 21.2899 14.74 21.2899 11.93 23.1499C10.66 23.9999 9.96001 25.1499 9.96001 26.3799C9.96001 27.6099 10.66 28.7499 11.92 29.5899C13.32 30.5299 15.16 30.9999 17 30.9999C18.84 30.9999 20.68 30.5299 22.08 29.5899C23.34 28.7399 24.04 27.5999 24.04 26.3599C24.03 25.1299 23.34 23.9899 22.08 23.1499Z" fill="#000080"/>
<path d="M27.99 16.3401C28.15 18.2801 26.77 19.9801 24.86 20.2101C24.85 20.2101 24.85 20.2101 24.84 20.2101H24.81C24.75 20.2101 24.69 20.2101 24.64 20.2301C23.67 20.2801 22.78 19.9701 22.11 19.4001C23.14 18.4801 23.73 17.1001 23.61 15.6001C23.54 14.7901 23.26 14.0501 22.84 13.4201C23.22 13.2301 23.66 13.1101 24.11 13.0701C26.07 12.9001 27.82 14.3601 27.99 16.3401Z" fill="#000080"/>
<path d="M29.99 25.5904C29.91 26.5604 29.29 27.4004 28.25 27.9704C27.25 28.5204 25.99 28.7804 24.74 28.7504C25.46 28.1004 25.88 27.2904 25.96 26.4304C26.06 25.1904 25.47 24.0004 24.29 23.0504C23.62 22.5204 22.84 22.1004 21.99 21.7904C24.2 21.1504 26.98 21.5804 28.69 22.9604C29.61 23.7004 30.08 24.6304 29.99 25.5904Z" fill="#000080"/>
</svg>
