<svg width="40" height="41" viewBox="0 0 40 41" fill="none" xmlns="http://www.w3.org/2000/svg">
<path d="M0 8C0 3.85786 3.35786 0.5 7.5 0.5H32.5C36.6421 0.5 40 3.85786 40 8V33C40 37.1421 36.6421 40.5 32.5 40.5H7.5C3.35786 40.5 0 37.1421 0 33V8Z" fill="#E2ECFF"/>
<path fill-rule="evenodd" clip-rule="evenodd" d="M11.823 22.1964L13.9048 21.0797C13.9048 21.0797 21.7107 23.8435 22.7977 24.2136C23.454 24.437 23.815 24.9853 23.9985 25.3843L23.2145 26.9306L16.1998 24.7108L15.9807 25.405L23.5831 27.811L24.6452 25.7154L32.1412 23.7166L32.91 25.0479L20.5311 31.1635L14.1474 27.6484L11.8228 28.5604V22.1966L11.823 22.1964ZM19.3783 18.915L21.4489 16.4223H19.7466C19.7974 15.1084 20.3505 13.9232 21.2199 13.0542C22.1323 12.1416 23.3932 11.5769 24.7859 11.5769C26.1785 11.5769 27.4395 12.1414 28.3519 13.0542C29.2643 13.9666 29.8291 15.2275 29.8291 16.6202C29.8291 18.0128 29.2643 19.2734 28.3519 20.1862C27.4395 21.0986 26.1785 21.6631 24.7859 21.6631V22.3916C26.3793 22.3916 27.8226 21.7456 28.8668 20.7011C29.9113 19.6566 30.5574 18.2135 30.5574 16.6201C30.5574 15.0264 29.9113 13.5834 28.8668 12.5392C27.8224 11.4947 26.3793 10.8486 24.7859 10.8486C23.1921 10.8486 21.7492 11.4947 20.7049 12.5392C19.7039 13.5398 19.0686 14.9072 19.0176 16.4222H17.308L19.3785 18.9149L19.3783 18.915ZM25.1501 12.5711V13.0748C25.6325 13.1393 26.0666 13.3289 26.401 13.6026C26.8379 13.9603 27.1085 14.46 27.1085 15.0175H26.3799C26.3799 14.6898 26.2118 14.3885 25.9401 14.1662C25.7287 13.9929 25.4566 13.8681 25.15 13.8121V16.2798C25.6325 16.3441 26.0666 16.5338 26.4009 16.8072C26.8379 17.1651 27.1084 17.665 27.1084 18.2221C27.1084 18.7795 26.8379 19.2793 26.4009 19.6369C26.0664 19.9107 25.6325 20.1004 25.15 20.1647V20.6688H24.4215V20.1647C23.939 20.1004 23.5045 19.9107 23.1705 19.6369C22.7336 19.2793 22.4631 18.7795 22.4631 18.2221H23.1914C23.1914 18.5497 23.3597 18.8514 23.6312 19.0734C23.8426 19.2466 24.115 19.3718 24.4215 19.4278V16.9599C23.939 16.8956 23.5049 16.7059 23.1706 16.4325C22.7336 16.0748 22.4631 15.5747 22.4631 15.0177C22.4631 14.4602 22.7336 13.9604 23.1706 13.6028C23.5047 13.329 23.939 13.1395 24.4215 13.075V12.5713H25.1501V12.5711ZM25.1501 17.0167V19.4278C25.4565 19.3718 25.7287 19.2466 25.9401 19.0734C26.2118 18.8514 26.3799 18.5497 26.3799 18.2221C26.3799 17.8944 26.2118 17.5931 25.9401 17.3708C25.7288 17.1979 25.4567 17.0727 25.1501 17.0167V17.0167ZM24.4215 16.2228V13.8121C24.1151 13.868 23.8426 13.9929 23.6312 14.1661C23.3597 14.3885 23.1914 14.6898 23.1914 15.0174C23.1914 15.3451 23.3597 15.6464 23.6316 15.8687C23.8426 16.0416 24.115 16.1668 24.4217 16.2228L24.4215 16.2228ZM7.11646 21.9814H11.0946V30.3542H7.11646V21.9814Z" fill="#000080"/>
</svg>
