<svg width="39" height="44" viewBox="0 0 39 44" fill="none" xmlns="http://www.w3.org/2000/svg">
<path fill-rule="evenodd" clip-rule="evenodd" d="M0.333496 10.0346C0.333496 8.7274 1.27816 7.60965 2.55315 7.32153C4.52813 6.87524 7.44265 6.09498 9.68506 4.98073C11.0102 4.32229 12.3353 3.54723 13.5773 2.82079C15.8412 1.49658 17.8289 0.333984 19.0366 0.333984C20.2445 0.333984 22.2321 1.49658 24.4961 2.82078C25.7381 3.54723 27.0631 4.32229 28.3883 4.98073C30.6307 6.09498 33.5452 6.87524 35.5202 7.32153C36.7952 7.60965 37.7399 8.7274 37.7399 10.0346V18.5081C37.7399 21.087 37.3617 23.6204 36.6393 26.0255C36.2881 25.9922 35.9255 26.0272 35.5711 26.141C35.3424 25.0954 34.5019 24.3027 33.4881 24.0851C32.8799 23.9409 32.2761 23.8661 31.6836 23.8502C31.8007 23.1537 31.8616 22.4383 31.8616 21.7087C31.8616 14.6255 26.1196 8.88348 19.0365 8.88348C11.9532 8.88348 6.21123 14.6255 6.21123 21.7087C6.21123 28.7918 11.9532 34.5339 19.0365 34.5339C20.2597 34.5339 21.4431 34.3626 22.5636 34.0427C22.2246 34.6757 22.1356 35.4415 22.3878 36.1776C22.8144 37.542 23.5329 38.7347 24.4128 39.7246L24.4591 39.7767L24.5083 39.8259C24.7333 40.0509 24.9972 40.2347 25.2852 40.3695C24.9301 40.5676 24.5682 40.7571 24.2001 40.9379C21.6686 42.1807 19.6272 43.0841 19.0419 43.0841C18.4563 43.0841 16.4129 42.1802 13.879 40.9368C5.4024 36.7772 0.333496 27.9457 0.333496 18.5035V10.0346Z" fill="#5FA4F8"/>
<path fill-rule="evenodd" clip-rule="evenodd" d="M18.3241 24.2485C14.2929 24.2485 10.8992 27.0216 9.94971 30.7609C12.2657 33.0861 15.4683 34.5275 19.0075 34.5352H19.0652C20.4486 34.5322 21.7806 34.3102 23.0284 33.9018C23.0643 33.8648 23.1014 33.8287 23.1395 33.7937C22.3779 33.0944 22.0447 31.9856 22.404 30.9371C22.8305 29.5727 23.549 28.3799 24.429 27.39L24.4752 27.338L24.5245 27.2887C24.8681 26.9451 25.3026 26.6975 25.775 26.5743C24.2307 25.1321 22.1583 24.2485 19.8827 24.2485H18.3241ZM14.2272 18.0587C14.2272 15.3422 16.4093 13.1602 19.1257 13.1602C21.8421 13.1602 24.0241 15.3867 24.0241 18.0587C24.0241 20.8196 21.8421 23.0017 19.1257 23.0017C16.4093 23.0017 14.2272 20.7751 14.2272 18.0587Z" fill="#1E4DD8"/>
<path d="M38.0671 35.4976L36.8346 34.8097C36.9779 34.1218 36.9779 33.4626 36.8346 32.7747L38.0671 32.0868C38.2104 32.0008 38.2677 31.8289 38.2104 31.6856C37.8951 30.6537 37.3505 29.7366 36.6627 28.9627C36.548 28.8481 36.376 28.8194 36.2327 28.9053L35.0002 29.5932C34.4843 29.1633 33.9111 28.8194 33.2806 28.5901V27.1857C33.2806 27.0423 33.1659 26.8991 32.9939 26.8704C31.9334 26.6124 30.8729 26.6411 29.8697 26.8704C29.6978 26.8991 29.6118 27.0423 29.6118 27.1857V28.5901C28.9526 28.8194 28.3794 29.1633 27.8635 29.6219L26.631 28.9053C26.4877 28.8194 26.3157 28.8481 26.2011 28.9627C25.5132 29.7366 24.9686 30.6537 24.6533 31.6856C24.596 31.8289 24.6533 32.0008 24.7967 32.0868L26.0291 32.7747C25.9145 33.4626 25.9145 34.1218 26.0291 34.8097L24.7967 35.4976C24.6533 35.5836 24.596 35.7556 24.6533 35.8988C24.9686 36.9307 25.5132 37.8478 26.2011 38.6217C26.3157 38.7364 26.4877 38.765 26.631 38.6791L27.8635 37.9912C28.3794 38.4211 28.9526 38.765 29.6118 38.9943V40.3987C29.6118 40.5421 29.7265 40.6854 29.8697 40.7427C30.9302 40.972 31.9907 40.9433 32.9939 40.7427C33.1659 40.6854 33.2806 40.5421 33.2806 40.3987V38.9943C33.9111 38.765 34.4843 38.4211 35.0002 37.9912L36.2327 38.6791C36.376 38.765 36.548 38.7364 36.6627 38.6217C37.3792 37.8478 37.8951 36.9307 38.239 35.8988C38.2677 35.7556 38.2104 35.5836 38.0671 35.4976ZM31.4462 36.0708C30.1564 36.0708 29.1532 35.0677 29.1532 33.7779C29.1532 32.5167 30.1564 31.4849 31.4462 31.4849C32.7073 31.4849 33.7392 32.5167 33.7392 33.7779C33.7392 35.0677 32.7073 36.0708 31.4462 36.0708Z" fill="#4A5056"/>
</svg>
