<svg width="21" height="19" viewBox="0 0 21 19" fill="none" xmlns="http://www.w3.org/2000/svg">
<path d="M19.5625 1.12155C19.3813 0.964591 19.1608 0.859863 18.9247 0.818578C18.6885 0.777293 18.4456 0.801005 18.2219 0.887177L0.915627 7.68405C0.650087 7.78693 0.425209 7.97337 0.274925 8.21526C0.124641 8.45715 0.0571031 8.74135 0.0825033 9.02498C0.107904 9.30862 0.224863 9.5763 0.415735 9.78764C0.606606 9.99897 0.861034 10.1425 1.14063 10.1966L5.6875 11.1059V16.7497C5.68781 17.0083 5.7645 17.261 5.90793 17.4762C6.05137 17.6913 6.25517 17.8593 6.49375 17.9591C6.65462 18.0246 6.82631 18.0596 7 18.0622C7.17252 18.0632 7.3435 18.0298 7.50289 17.9638C7.66229 17.8977 7.80687 17.8005 7.92813 17.6778L10.4875 15.1184L14.3125 18.4841C14.5494 18.6965 14.8568 18.8134 15.175 18.8122C15.3121 18.8133 15.4484 18.7911 15.5781 18.7466C15.7946 18.6777 15.9892 18.5531 16.1422 18.3853C16.2953 18.2174 16.4014 18.0122 16.45 17.7903L19.9844 2.40593C20.0372 2.17371 20.0258 1.9315 19.9515 1.70525C19.8772 1.47899 19.7427 1.27722 19.5625 1.12155ZM1.21563 8.92155C1.20907 8.88203 1.21679 8.84147 1.2374 8.80712C1.25801 8.77276 1.29017 8.74687 1.32813 8.73405L15.8125 3.04343L6.11875 10.0466L1.36563 9.0903C1.3242 9.08567 1.28594 9.06587 1.25825 9.03471C1.23055 9.00355 1.21537 8.96324 1.21563 8.92155ZM7.13125 16.8809C7.10525 16.9082 7.07128 16.9265 7.03423 16.9332C6.99717 16.94 6.95893 16.9348 6.925 16.9184C6.89204 16.904 6.86391 16.8805 6.84397 16.8506C6.82402 16.8207 6.8131 16.7856 6.8125 16.7497V11.8841L9.63438 14.3778L7.13125 16.8809ZM15.3625 17.5372C15.3561 17.5697 15.3412 17.5999 15.3193 17.6248C15.2974 17.6497 15.2693 17.6683 15.2378 17.6788C15.2064 17.6893 15.1727 17.6912 15.1403 17.6845C15.1078 17.6777 15.0778 17.6625 15.0531 17.6403L7.15 10.6841L18.8688 2.2278L15.3625 17.5372Z" fill="#9E9E9E"/>
</svg>
