<svg width="40" height="40" viewBox="0 0 40 40" fill="none" xmlns="http://www.w3.org/2000/svg">
<g clip-path="url(#clip0_331_4418)">
<path d="M20 0C31.0451 0 40 8.95473 40 20C40 31.0452 31.0448 40 20 40C8.9552 40 0 31.0475 0 20C0 8.95247 8.9536 0 20 0Z" fill="#21A27C"/>
<path d="M22.4691 17.3346V14.3595H29.2727V9.82617H10.7462V14.3595H17.5505V17.3323C12.0206 17.5864 7.86255 18.6814 7.86255 19.9934C7.86255 21.3054 12.0225 22.4005 17.5505 22.6561V32.186H22.4705V22.6555C27.9905 22.4008 32.1401 21.3064 32.1401 19.9955C32.1401 18.6845 27.9905 17.5904 22.4705 17.3355L22.4691 17.3346ZM22.4707 21.8483V21.8459C22.332 21.8546 21.6187 21.8974 20.0307 21.8974C18.7611 21.8974 17.8679 21.8614 17.5531 21.845V21.849C12.6675 21.6328 9.02062 20.7819 9.02062 19.7638C9.02062 18.7459 12.6679 17.8963 17.5531 17.6795V21.0014C17.8731 21.0235 18.7882 21.0774 20.0515 21.0774C21.5687 21.0774 22.3315 21.0141 22.4715 21.0014V17.6795C27.3475 17.8965 30.9859 18.7483 30.9859 19.7626C30.9859 20.777 27.3459 21.629 22.4715 21.8461" fill="white"/>
</g>
<defs>
<clipPath id="clip0_331_4418">
<rect width="40" height="40" fill="white"/>
</clipPath>
</defs>
</svg>
