<svg width="55" height="55" viewBox="0 0 55 55" fill="none" xmlns="http://www.w3.org/2000/svg">
<rect width="55" height="55" rx="6" fill="#F1F6FF"/>
<path d="M16.7556 30.4142L13.8749 32.1891C13.0913 32.6719 13.1751 33.8757 14.0174 34.2366L35.9769 43.6445C36.6381 43.9278 37.3805 43.495 37.4914 42.7618L41.3193 17.4651C41.4645 16.5056 40.467 15.8045 39.6622 16.3003L30.6259 21.8681C30.1655 27.1182 25.8824 31.2321 20.6668 31.2321C19.2789 31.2321 17.957 30.9407 16.7556 30.4142Z" fill="#5FA4F8"/>
<path d="M18.2357 29.5024C19.007 29.7343 19.8228 29.8586 20.6668 29.8586C24.8376 29.8586 28.3203 26.823 29.1472 22.7793L18.2357 29.5024Z" fill="#5FA4F8"/>
<path d="M21.333 37.4151L39.936 17.5117L27.333 39.8192L24.8325 44.6172C24.8033 44.6732 24.7706 44.7278 24.7261 44.7716C24.3774 45.1144 23.7654 45.0017 23.5801 44.5312L21.333 37.4151Z" fill="#1E4DD8"/>
<path d="M21.2647 23.8573L19.068 23.2474L19.5618 21.3359L21.7606 21.943C22.2735 22.0846 22.5786 22.628 22.4421 23.1568C22.3053 23.686 21.7779 23.9998 21.2647 23.8573Z" fill="#1E4DD8"/>
<path d="M21.6493 18.4353C21.6397 18.4327 21.6302 18.4298 21.6208 18.4268L20.4004 18.0898L19.9052 20.0068L21.4697 20.4387C21.9832 20.5805 22.5104 20.2663 22.6471 19.737C22.7839 19.2076 22.4784 18.6635 21.9649 18.5218L21.678 18.4426C21.6684 18.4404 21.6589 18.438 21.6493 18.4353Z" fill="#1E4DD8"/>
<path fill-rule="evenodd" clip-rule="evenodd" d="M20.6667 29.8586C25.4531 29.8586 29.3333 25.8608 29.3333 20.9293C29.3333 15.9978 25.4531 12 20.6667 12C15.8802 12 12 15.9978 12 20.9293C12 25.8608 15.8802 29.8586 20.6667 29.8586ZM20.8231 16.4537C20.9178 16.0872 20.7063 15.7104 20.3506 15.6122C19.995 15.514 19.6299 15.7316 19.5352 16.0982L19.4554 16.4072L18.8386 16.2369C18.483 16.1387 18.1179 16.3563 18.0232 16.7229C17.9285 17.0895 18.14 17.4663 18.4957 17.5644L19.1124 17.7347L17.7806 22.8902L17.1677 22.7201C16.8122 22.6214 16.4468 22.8385 16.3516 23.2049C16.2564 23.5713 16.4674 23.9484 16.8229 24.0471L17.4376 24.2177L17.3562 24.5329C17.2615 24.8995 17.473 25.2762 17.8287 25.3744C18.1843 25.4726 18.5494 25.255 18.6441 24.8884L18.725 24.5752L19.3306 24.7433L19.2496 25.0565C19.1549 25.4231 19.3665 25.7999 19.7221 25.8981C20.0777 25.9963 20.4428 25.7787 20.5375 25.4121L20.618 25.1007L20.9199 25.1845C22.1449 25.5246 23.4036 24.7757 23.73 23.5125C23.9402 22.6987 23.712 21.8702 23.195 21.2939C23.5437 20.9924 23.809 20.581 23.935 20.093C24.2315 18.9455 23.6567 17.7691 22.6299 17.3103L22.716 16.9771C22.8107 16.6105 22.5992 16.2338 22.2435 16.1356C21.8879 16.0374 21.5228 16.255 21.4281 16.6215L21.3484 16.9298L20.7433 16.7628L20.8231 16.4537Z" fill="#1E4DD8"/>
</svg>
