<svg width="22" height="19" viewBox="0 0 22 19" fill="none" xmlns="http://www.w3.org/2000/svg">
<path d="M2.19333 3.64431C2.21168 3.57334 2.23012 3.50465 2.24851 3.43834C3.19629 4.50022 4.33793 5.37756 5.61629 6.021C7.28967 6.86327 9.14538 7.27861 11.0181 7.23005C11.3975 7.22022 11.7 6.90982 11.7 6.53029V5.53029H11.7001L11.6999 5.52091C11.6896 4.74663 11.9172 3.98784 12.3521 3.34717C12.7871 2.7065 13.4082 2.21485 14.1317 1.93873C14.8551 1.6626 15.6459 1.61532 16.3971 1.80328C17.1483 1.99124 17.8237 2.40537 18.3318 2.98966C18.5125 3.19741 18.7982 3.27995 19.0618 3.20056C19.597 3.03941 20.1189 2.84006 20.6238 2.60442C20.3026 3.1778 19.9009 3.70598 19.4285 4.17189C19.2621 4.33595 19.1886 4.57221 19.2324 4.80172C19.2765 5.03238 19.2992 5.26664 19.3 5.50149C19.2996 11.0059 16.6805 14.8854 13.0461 16.8199C10.0807 18.3982 6.39242 18.7063 2.8047 17.4852C4.43803 17.1694 6.00053 16.5248 7.39314 15.5795C7.60344 15.4367 7.71983 15.1912 7.69723 14.938C7.67462 14.6849 7.51656 14.4639 7.2843 14.3606C5.14623 13.4104 3.82195 12.1839 3.01325 10.907C2.20173 9.62566 1.88256 8.25076 1.82428 6.9685C1.76585 5.68319 1.97059 4.50556 2.19333 3.64431Z" stroke="#9E9E9E" stroke-width="1.4" stroke-linecap="round" stroke-linejoin="round"/>
</svg>
