<svg width="32" height="32" viewBox="0 0 32 32" fill="none" xmlns="http://www.w3.org/2000/svg">
<g clip-path="url(#clip0_1293_14560)">
<path d="M16 32C24.8667 32 32 24.8667 32 16C32 7.13328 24.8667 0 16 0C7.13328 0 0 7.13328 0 16C0 24.8667 7.13328 32 16 32Z" fill="#2775CA"/>
<path d="M20.4001 18.5328C20.4001 16.1995 19.0001 15.3995 16.2001 15.0662C14.2001 14.7995 13.8001 14.2662 13.8001 13.3328C13.8001 12.3994 14.4668 11.7995 15.8001 11.7995C17.0001 11.7995 17.6668 12.1995 18.0001 13.1995C18.0668 13.3995 18.2668 13.5328 18.4668 13.5328H19.5334C19.8001 13.5328 20.0001 13.3328 20.0001 13.0662V12.9995C19.7334 11.5328 18.5334 10.3995 17.0001 10.2662V8.66625C17.0001 8.39953 16.8001 8.19953 16.4668 8.13281H15.4668C15.2001 8.13281 15.0001 8.33281 14.9334 8.66625V10.1995C12.9334 10.4662 11.6668 11.7995 11.6668 13.4662C11.6668 15.6662 13.0001 16.5328 15.8001 16.8662C17.6668 17.1995 18.2668 17.5995 18.2668 18.6662C18.2668 19.733 17.3334 20.4662 16.0668 20.4662C14.3334 20.4662 13.7334 19.7328 13.5334 18.7328C13.4668 18.4662 13.2668 18.3328 13.0668 18.3328H11.9334C11.6668 18.3328 11.4668 18.5328 11.4668 18.7995V18.8662C11.7334 20.5328 12.8001 21.7328 15.0001 22.0662V23.6662C15.0001 23.9328 15.2001 24.1328 15.5334 24.1995H16.5334C16.8001 24.1995 17.0001 23.9995 17.0668 23.6662V22.0662C19.0668 21.7328 20.4001 20.3328 20.4001 18.5328Z" fill="white"/>
<path d="M12.6003 25.5336C7.40032 23.667 4.7336 17.867 6.66704 12.7336C7.66704 9.93355 9.86704 7.80027 12.6003 6.80027C12.867 6.66699 13.0003 6.46699 13.0003 6.13355V5.20027C13.0003 4.93355 12.867 4.73355 12.6003 4.66699C12.5336 4.66699 12.4003 4.66699 12.3336 4.73355C6.00032 6.73355 2.5336 13.467 4.5336 19.8003C5.7336 23.5336 8.60032 26.4003 12.3336 27.6003C12.6003 27.7335 12.867 27.6003 12.9336 27.3335C13.0003 27.267 13.0003 27.2003 13.0003 27.067V26.1335C13.0003 25.9335 12.8003 25.667 12.6003 25.5336ZM19.667 4.73355C19.4003 4.60027 19.1336 4.73355 19.067 5.00027C19.0003 5.06699 19.0003 5.13355 19.0003 5.26699V6.20027C19.0003 6.46699 19.2003 6.73355 19.4003 6.86699C24.6003 8.73355 27.267 14.5336 25.3336 19.667C24.3336 22.467 22.1336 24.6003 19.4003 25.6003C19.1336 25.7335 19.0003 25.9335 19.0003 26.267V27.2003C19.0003 27.467 19.1336 27.667 19.4003 27.7335C19.467 27.7335 19.6003 27.7336 19.667 27.667C26.0003 25.667 29.467 18.9336 27.467 12.6003C26.267 8.80027 23.3336 5.93355 19.667 4.73355Z" fill="white"/>
</g>
<defs>
<clipPath id="clip0_1293_14560">
<rect width="32" height="32" fill="white"/>
</clipPath>
</defs>
</svg>
