<svg width="24" height="24" viewBox="0 0 24 24" fill="none" xmlns="http://www.w3.org/2000/svg">
<g clip-path="url(#clip0_2098_767)">
<path d="M12 24C18.65 24 24 18.65 24 12C24 5.34996 18.65 0 12 0C5.34996 0 0 5.34996 0 12C0 18.65 5.34996 24 12 24Z" fill="#2775CA"/>
<path d="M15.2996 13.8996C15.2996 12.1496 14.2496 11.5496 12.1496 11.2997C10.6496 11.0996 10.3496 10.6997 10.3496 9.99961C10.3496 9.29956 10.8496 8.84963 11.8496 8.84963C12.7496 8.84963 13.2496 9.14963 13.4996 9.89963C13.5496 10.0496 13.6996 10.1496 13.8496 10.1496H14.6496C14.8496 10.1496 14.9996 9.99961 14.9996 9.79966V9.74963C14.7996 8.64961 13.8996 7.79963 12.7496 7.69966V6.49969C12.7496 6.29965 12.5996 6.14965 12.3496 6.09961H11.5996C11.3996 6.09961 11.2496 6.24961 11.1996 6.49969V7.64963C9.69956 7.84966 8.74961 8.84963 8.74961 10.0997C8.74961 11.7497 9.74958 12.3996 11.8496 12.6497C13.2496 12.8996 13.6996 13.1996 13.6996 13.9997C13.6996 14.7998 12.9996 15.3497 12.0496 15.3497C10.7496 15.3497 10.2996 14.7996 10.1496 14.0496C10.0996 13.8497 9.94961 13.7496 9.79961 13.7496H8.94956C8.74961 13.7496 8.59961 13.8996 8.59961 14.0996V14.1497C8.79956 15.3996 9.59958 16.2996 11.2496 16.5497V17.7497C11.2496 17.9496 11.3996 18.0996 11.6496 18.1496H12.3996C12.5996 18.1496 12.7496 17.9996 12.7996 17.7497V16.5497C14.2996 16.2996 15.2996 15.2496 15.2996 13.8996Z" fill="white"/>
<path d="M9.44998 19.15C5.55 17.75 3.54996 13.4 5.00004 9.54996C5.75004 7.44992 7.40004 5.84996 9.44998 5.09996C9.65001 5 9.74998 4.85 9.74998 4.59992V3.89996C9.74998 3.69992 9.65001 3.54992 9.44998 3.5C9.39996 3.5 9.29998 3.5 9.24996 3.54992C4.5 5.04992 1.89996 10.1 3.39996 14.85C4.29996 17.65 6.45 19.8 9.24996 20.7C9.44998 20.7999 9.65001 20.7 9.69996 20.4999C9.74998 20.45 9.74998 20.4 9.74998 20.3V19.5999C9.74998 19.4499 9.59998 19.25 9.44998 19.15ZM14.75 3.54992C14.55 3.44996 14.35 3.54992 14.3 3.74996C14.25 3.8 14.25 3.84992 14.25 3.95V4.64996C14.25 4.85 14.4 5.04992 14.55 5.15C18.45 6.54992 20.45 10.9 19 14.75C18.25 16.85 16.6 18.45 14.55 19.2C14.35 19.2999 14.25 19.4499 14.25 19.7V20.4C14.25 20.6 14.35 20.75 14.55 20.7999C14.6 20.7999 14.7 20.8 14.75 20.75C19.5 19.25 22.1 14.2 20.6 9.44998C19.7 6.59996 17.5 4.44992 14.75 3.54992Z" fill="white"/>
</g>
<defs>
<clipPath id="clip0_2098_767">
<rect width="24" height="24" fill="white"/>
</clipPath>
</defs>
</svg>
