<svg width="24" height="24" viewBox="0 0 24 24" fill="none" xmlns="http://www.w3.org/2000/svg">
<g clip-path="url(#clip0_2098_378)">
<path d="M12 0C18.6271 0 24 5.37284 24 12C24 18.6271 18.6269 24 12 24C5.37312 24 0 18.6285 0 12C0 5.37148 5.37216 0 12 0Z" fill="#21A27C"/>
<path d="M13.4817 10.4006V8.61551H17.5639V5.89551H6.44798V8.61551H10.5305V10.3992C7.21262 10.5516 4.71777 11.2086 4.71777 11.9958C4.71777 12.783 7.21377 13.4401 10.5305 13.5935V19.3114H13.4825V13.5931C16.7945 13.4403 19.2843 12.7836 19.2843 11.9971C19.2843 11.2105 16.7945 10.554 13.4825 10.4011L13.4817 10.4006ZM13.4827 13.1088V13.1073C13.3994 13.1126 12.9715 13.1382 12.0187 13.1382C11.2569 13.1382 10.721 13.1166 10.5321 13.1068V13.1092C7.60074 12.9795 5.41262 12.4689 5.41262 11.8581C5.41262 11.2473 7.60097 10.7376 10.5321 10.6075V12.6006C10.7241 12.6139 11.2732 12.6462 12.0311 12.6462C12.9415 12.6462 13.3991 12.6083 13.4831 12.6006V10.6075C16.4087 10.7377 18.5918 11.2488 18.5918 11.8574C18.5918 12.466 16.4078 12.9772 13.4831 13.1075" fill="white"/>
</g>
<defs>
<clipPath id="clip0_2098_378">
<rect width="24" height="24" fill="white"/>
</clipPath>
</defs>
</svg>
