<svg width="44" height="45" viewBox="0 0 44 45" fill="none" xmlns="http://www.w3.org/2000/svg">
<path fill-rule="evenodd" clip-rule="evenodd" d="M31.1657 4.31641H4.5824C4.5824 4.31641 7.3324 4.31641 7.3324 7.95277V37.9538C7.3324 39.4601 8.56363 40.68 10.0824 40.68H33.9157C35.4345 40.68 36.6657 39.459 36.6657 37.9527V9.77095C36.6657 6.75849 34.2034 4.31641 31.1657 4.31641ZM25.2727 12.4982C25.2727 11.7451 24.6572 11.1346 23.8977 11.1346H13.8145C13.055 11.1346 12.4394 11.7451 12.4394 12.4982C12.4394 13.2513 13.055 13.8619 13.8145 13.8619H23.8977C24.6572 13.8619 25.2727 13.2513 25.2727 12.4982ZM28.874 17.9528C28.874 17.1996 28.2584 16.5891 27.499 16.5891H13.8145C13.055 16.5891 12.4394 17.1996 12.4394 17.9528C12.4394 18.7059 13.055 19.3164 13.8145 19.3164H27.499C28.2584 19.3164 28.874 18.7059 28.874 17.9528Z" fill="#5FA4F8"/>
<path d="M1.83423 10.2255C1.83423 10.9786 2.44984 11.5891 3.20923 11.5891H7.33423V7.04368C7.33423 5.45818 6.17534 4.31641 4.58423 4.31641C2.99313 4.31641 1.83423 5.45818 1.83423 7.04368V10.2255Z" fill="#1E4DD8"/>
<path d="M21.0842 26.2604C21.0842 25.1658 21.8838 24.232 22.9548 23.9679C24.0194 23.7054 25.3487 23.312 26.4124 22.7878C28.5436 21.7375 30.6749 20.1621 31.7405 20.1621C32.8061 20.1621 34.9374 21.7375 37.0686 22.7878C38.1322 23.3118 39.4611 23.7052 40.5256 23.9677C41.597 24.232 42.3967 25.1661 42.3967 26.261V27.2653C42.3967 34.5523 39.0911 44.318 31.7434 44.318C24.3928 44.318 21.0842 34.55 21.0842 27.2601V26.2604Z" fill="#1E4DD8"/>
<path d="M37.6669 29.9545C38.1873 29.406 38.1609 28.5431 37.6079 28.027C37.055 27.5107 36.1848 27.5369 35.6643 28.0853L37.6669 29.9545ZM27.8411 31.6991C27.3042 31.1665 26.4335 31.1665 25.8966 31.6991C25.3597 32.2316 25.3597 33.0951 25.8966 33.6276L27.8411 31.6991ZM30.3939 35.6284L31.3952 36.5629L30.3939 35.6284ZM35.6643 28.0853L29.3927 34.6938L31.3952 36.5629L37.6669 29.9545L35.6643 28.0853ZM30.8389 34.6721L27.8411 31.6991L25.8966 33.6276L28.8944 36.6006L30.8389 34.6721ZM29.3927 34.6938C29.7823 34.2833 30.437 34.2734 30.8389 34.6721L28.8944 36.6006C29.5894 37.2899 30.7216 37.2728 31.3952 36.5629L29.3927 34.6938Z" fill="white"/>
</svg>
