<svg width="117" height="35" viewBox="0 0 117 35" fill="none" xmlns="http://www.w3.org/2000/svg">
<rect y="0.5" width="117" height="34" rx="17" fill="#E1FCEF"/>
<path d="M33.1667 14L25.8333 21.3333L22.5 18" stroke="#14804A" stroke-width="1.4" stroke-linecap="round" stroke-linejoin="round"/>
<path d="M55.3 12.878L51.212 23H49.511L45.423 12.878H46.935C47.0983 12.878 47.2313 12.9177 47.334 12.997C47.4367 13.0763 47.5137 13.179 47.565 13.305L49.952 19.479C50.0313 19.6797 50.106 19.9013 50.176 20.144C50.2507 20.382 50.3207 20.6317 50.386 20.893C50.442 20.6317 50.5027 20.382 50.568 20.144C50.6333 19.9013 50.7057 19.6797 50.785 19.479L53.158 13.305C53.1953 13.1977 53.2677 13.0997 53.375 13.011C53.487 12.9223 53.6223 12.878 53.781 12.878H55.3ZM60.0143 18.583C60.0143 18.359 59.9816 18.149 59.9163 17.953C59.8556 17.7523 59.7623 17.5773 59.6363 17.428C59.5103 17.2787 59.3493 17.162 59.1533 17.078C58.9619 16.9893 58.7379 16.945 58.4813 16.945C57.9819 16.945 57.5876 17.0873 57.2983 17.372C57.0136 17.6567 56.8316 18.0603 56.7523 18.583H60.0143ZM56.7173 19.626C56.7453 19.9947 56.8106 20.3143 56.9133 20.585C57.0159 20.851 57.1513 21.0727 57.3193 21.25C57.4873 21.4227 57.6856 21.5533 57.9143 21.642C58.1476 21.726 58.4043 21.768 58.6843 21.768C58.9643 21.768 59.2046 21.7353 59.4053 21.67C59.6106 21.6047 59.7879 21.5323 59.9373 21.453C60.0913 21.3737 60.2243 21.3013 60.3363 21.236C60.4529 21.1707 60.5649 21.138 60.6723 21.138C60.8169 21.138 60.9243 21.1917 60.9943 21.299L61.4913 21.929C61.2999 22.153 61.0853 22.342 60.8473 22.496C60.6093 22.6453 60.3596 22.7667 60.0983 22.86C59.8416 22.9487 59.5779 23.0117 59.3073 23.049C59.0413 23.0863 58.7823 23.105 58.5303 23.105C58.0309 23.105 57.5666 23.0233 57.1373 22.86C56.7079 22.692 56.3346 22.447 56.0173 22.125C55.6999 21.7983 55.4503 21.397 55.2683 20.921C55.0863 20.4403 54.9953 19.885 54.9953 19.255C54.9953 18.765 55.0746 18.3053 55.2333 17.876C55.3919 17.442 55.6183 17.0663 55.9123 16.749C56.2109 16.427 56.5726 16.1727 56.9973 15.986C57.4266 15.7993 57.9096 15.706 58.4463 15.706C58.8989 15.706 59.3166 15.7783 59.6993 15.923C60.0819 16.0677 60.4109 16.28 60.6863 16.56C60.9616 16.8353 61.1763 17.176 61.3303 17.582C61.4889 17.9833 61.5683 18.443 61.5683 18.961C61.5683 19.2223 61.5403 19.3997 61.4843 19.493C61.4283 19.5817 61.3209 19.626 61.1623 19.626H56.7173ZM64.9168 17.064C65.1408 16.6347 65.4068 16.2987 65.7148 16.056C66.0228 15.8087 66.3868 15.685 66.8068 15.685C67.1381 15.685 67.4041 15.7573 67.6048 15.902L67.4928 17.197C67.4695 17.281 67.4345 17.3417 67.3878 17.379C67.3458 17.4117 67.2875 17.428 67.2128 17.428C67.1428 17.428 67.0378 17.4163 66.8978 17.393C66.7625 17.3697 66.6295 17.358 66.4988 17.358C66.3075 17.358 66.1371 17.386 65.9878 17.442C65.8385 17.498 65.7031 17.5797 65.5818 17.687C65.4651 17.7897 65.3601 17.9157 65.2668 18.065C65.1781 18.2143 65.0941 18.3847 65.0148 18.576V23H63.2858V15.818H64.3008C64.4781 15.818 64.6018 15.8507 64.6718 15.916C64.7418 15.9767 64.7885 16.0887 64.8118 16.252L64.9168 17.064ZM70.7205 15.818V23H68.9845V15.818H70.7205ZM70.9585 13.725C70.9585 13.8743 70.9281 14.0143 70.8675 14.145C70.8068 14.2757 70.7251 14.39 70.6225 14.488C70.5245 14.586 70.4078 14.6653 70.2725 14.726C70.1371 14.782 69.9925 14.81 69.8385 14.81C69.6891 14.81 69.5468 14.782 69.4115 14.726C69.2808 14.6653 69.1665 14.586 69.0685 14.488C68.9705 14.39 68.8911 14.2757 68.8305 14.145C68.7745 14.0143 68.7465 13.8743 68.7465 13.725C68.7465 13.571 68.7745 13.4263 68.8305 13.291C68.8911 13.1557 68.9705 13.039 69.0685 12.941C69.1665 12.843 69.2808 12.766 69.4115 12.71C69.5468 12.6493 69.6891 12.619 69.8385 12.619C69.9925 12.619 70.1371 12.6493 70.2725 12.71C70.4078 12.766 70.5245 12.843 70.6225 12.941C70.7251 13.039 70.8068 13.1557 70.8675 13.291C70.9281 13.4263 70.9585 13.571 70.9585 13.725ZM73.4141 23V17.12L72.7911 17.022C72.6558 16.994 72.5461 16.9473 72.4621 16.882C72.3828 16.812 72.3431 16.714 72.3431 16.588V15.881H73.4141V15.65C73.4141 15.2113 73.4865 14.8053 73.6311 14.432C73.7758 14.054 73.9951 13.7273 74.2891 13.452C74.5831 13.1767 74.9541 12.962 75.4021 12.808C75.8548 12.6493 76.3868 12.57 76.9981 12.57C77.1941 12.57 77.3925 12.5817 77.5931 12.605C77.7985 12.6237 77.9758 12.6563 78.1251 12.703L78.0691 13.599C78.0598 13.7063 78.0015 13.7717 77.8941 13.795C77.7868 13.8137 77.6538 13.823 77.4951 13.823C77.0425 13.823 76.6621 13.8627 76.3541 13.942C76.0508 14.0213 75.8035 14.1403 75.6121 14.299C75.4255 14.453 75.2901 14.649 75.2061 14.887C75.1268 15.1203 75.0871 15.3933 75.0871 15.706V15.881H79.5391V23H77.8101V17.113H75.1431V23H73.4141ZM86.3583 18.583C86.3583 18.359 86.3257 18.149 86.2603 17.953C86.1997 17.7523 86.1063 17.5773 85.9803 17.428C85.8543 17.2787 85.6933 17.162 85.4973 17.078C85.306 16.9893 85.082 16.945 84.8253 16.945C84.326 16.945 83.9317 17.0873 83.6423 17.372C83.3577 17.6567 83.1757 18.0603 83.0963 18.583H86.3583ZM83.0613 19.626C83.0893 19.9947 83.1547 20.3143 83.2573 20.585C83.36 20.851 83.4953 21.0727 83.6633 21.25C83.8313 21.4227 84.0297 21.5533 84.2583 21.642C84.4917 21.726 84.7483 21.768 85.0283 21.768C85.3083 21.768 85.5487 21.7353 85.7493 21.67C85.9547 21.6047 86.132 21.5323 86.2813 21.453C86.4353 21.3737 86.5683 21.3013 86.6803 21.236C86.797 21.1707 86.909 21.138 87.0163 21.138C87.161 21.138 87.2683 21.1917 87.3383 21.299L87.8353 21.929C87.644 22.153 87.4293 22.342 87.1913 22.496C86.9533 22.6453 86.7037 22.7667 86.4423 22.86C86.1857 22.9487 85.922 23.0117 85.6513 23.049C85.3853 23.0863 85.1263 23.105 84.8743 23.105C84.375 23.105 83.9107 23.0233 83.4813 22.86C83.052 22.692 82.6787 22.447 82.3613 22.125C82.044 21.7983 81.7943 21.397 81.6123 20.921C81.4303 20.4403 81.3393 19.885 81.3393 19.255C81.3393 18.765 81.4187 18.3053 81.5773 17.876C81.736 17.442 81.9623 17.0663 82.2563 16.749C82.555 16.427 82.9167 16.1727 83.3413 15.986C83.7707 15.7993 84.2537 15.706 84.7903 15.706C85.243 15.706 85.6607 15.7783 86.0433 15.923C86.426 16.0677 86.755 16.28 87.0303 16.56C87.3057 16.8353 87.5203 17.176 87.6743 17.582C87.833 17.9833 87.9123 18.443 87.9123 18.961C87.9123 19.2223 87.8843 19.3997 87.8283 19.493C87.7723 19.5817 87.665 19.626 87.5063 19.626H83.0613ZM94.1379 17.652C93.9419 17.414 93.7272 17.246 93.4939 17.148C93.2652 17.05 93.0179 17.001 92.7519 17.001C92.4905 17.001 92.2549 17.05 92.0449 17.148C91.8349 17.246 91.6552 17.3953 91.5059 17.596C91.3565 17.792 91.2422 18.044 91.1629 18.352C91.0835 18.6553 91.0439 19.0147 91.0439 19.43C91.0439 19.85 91.0765 20.207 91.1419 20.501C91.2119 20.7903 91.3099 21.0283 91.4359 21.215C91.5619 21.397 91.7159 21.53 91.8979 21.614C92.0799 21.6933 92.2829 21.733 92.5069 21.733C92.8662 21.733 93.1719 21.6583 93.4239 21.509C93.6759 21.3597 93.9139 21.1473 94.1379 20.872V17.652ZM95.8669 12.598V23H94.8099C94.5812 23 94.4365 22.895 94.3759 22.685L94.2289 21.992C93.9395 22.3233 93.6059 22.5917 93.2279 22.797C92.8545 23.0023 92.4182 23.105 91.9189 23.105C91.5269 23.105 91.1675 23.0233 90.8409 22.86C90.5142 22.6967 90.2319 22.461 89.9939 22.153C89.7605 21.8403 89.5785 21.4553 89.4479 20.998C89.3219 20.5407 89.2589 20.018 89.2589 19.43C89.2589 18.898 89.3312 18.4033 89.4759 17.946C89.6205 17.4887 89.8282 17.092 90.0989 16.756C90.3695 16.42 90.6939 16.1587 91.0719 15.972C91.4499 15.7807 91.8745 15.685 92.3459 15.685C92.7472 15.685 93.0902 15.748 93.3749 15.874C93.6595 16 93.9139 16.1703 94.1379 16.385V12.598H95.8669Z" fill="#14804A"/>
</svg>
