<svg width="43" height="40" viewBox="0 0 43 40" fill="none" xmlns="http://www.w3.org/2000/svg">
<rect width="43" height="40" rx="6" fill="#F0F5FF"/>
<path d="M26.5 30.75H16.5C13.06 30.75 10.75 28.44 10.75 25V20C10.75 16.92 12.65 14.69 15.6 14.32C15.88 14.28 16.19 14.25 16.5 14.25H26.5C26.74 14.25 27.05 14.26 27.37 14.31C30.32 14.65 32.25 16.89 32.25 20V25C32.25 28.44 29.94 30.75 26.5 30.75ZM16.5 15.75C16.26 15.75 16.03 15.77 15.8 15.8C13.6 16.08 12.25 17.68 12.25 20V25C12.25 27.58 13.92 29.25 16.5 29.25H26.5C29.08 29.25 30.75 27.58 30.75 25V20C30.75 17.66 29.38 16.05 27.16 15.79C26.92 15.75 26.71 15.75 26.5 15.75H16.5Z" fill="#2C4C8D"/>
<path d="M15.69 15.8104C15.45 15.8104 15.23 15.7004 15.08 15.5004C14.91 15.2704 14.89 14.9704 15.02 14.7204C15.19 14.3804 15.43 14.0504 15.74 13.7504L18.99 10.4904C20.65 8.84043 23.35 8.84043 25.01 10.4904L26.76 12.2604C27.5 12.9904 27.95 13.9704 28 15.0104C28.01 15.2404 27.92 15.4604 27.75 15.6104C27.58 15.7604 27.35 15.8304 27.13 15.7904C26.93 15.7604 26.72 15.7504 26.5 15.7504H16.5C16.26 15.7504 16.03 15.7704 15.8 15.8004C15.77 15.8104 15.73 15.8104 15.69 15.8104ZM17.36 14.2504H26.32C26.19 13.9104 25.98 13.6004 25.7 13.3204L23.94 11.5404C22.87 10.4804 21.12 10.4804 20.04 11.5404L17.36 14.2504Z" fill="#2C4C8D"/>
<path d="M31.5 25.25H28.5C26.98 25.25 25.75 24.02 25.75 22.5C25.75 20.98 26.98 19.75 28.5 19.75H31.5C31.91 19.75 32.25 20.09 32.25 20.5C32.25 20.91 31.91 21.25 31.5 21.25H28.5C27.81 21.25 27.25 21.81 27.25 22.5C27.25 23.19 27.81 23.75 28.5 23.75H31.5C31.91 23.75 32.25 24.09 32.25 24.5C32.25 24.91 31.91 25.25 31.5 25.25Z" fill="#2C4C8D"/>
</svg>
