<svg width="25" height="24" viewBox="0 0 25 24" fill="none" xmlns="http://www.w3.org/2000/svg">
<path d="M17.5 22.75H7.5C4.06 22.75 1.75 20.44 1.75 17V12C1.75 8.92 3.65 6.69001 6.6 6.32001C6.88 6.28001 7.19 6.25 7.5 6.25H17.5C17.74 6.25 18.05 6.26 18.37 6.31C21.32 6.65 23.25 8.89 23.25 12V17C23.25 20.44 20.94 22.75 17.5 22.75ZM7.5 7.75C7.26 7.75 7.03 7.76999 6.8 7.79999C4.6 8.07999 3.25 9.68 3.25 12V17C3.25 19.58 4.92 21.25 7.5 21.25H17.5C20.08 21.25 21.75 19.58 21.75 17V12C21.75 9.66 20.38 8.05001 18.16 7.79001C17.92 7.75001 17.71 7.75 17.5 7.75H7.5Z" fill="#2C4C8D"/>
<path d="M6.69005 7.81044C6.45005 7.81044 6.23005 7.70044 6.08005 7.50044C5.91005 7.27044 5.89005 6.97044 6.02005 6.72044C6.19005 6.38044 6.43005 6.05044 6.74005 5.75044L9.99005 2.49043C11.65 0.84043 14.35 0.84043 16.01 2.49043L17.76 4.26045C18.5 4.99045 18.95 5.97045 19 7.01045C19.01 7.24045 18.92 7.46042 18.75 7.61042C18.58 7.76043 18.35 7.83045 18.13 7.79045C17.93 7.76045 17.72 7.75044 17.5 7.75044H7.50005C7.26005 7.75044 7.03005 7.77043 6.80005 7.80043C6.77005 7.81043 6.73005 7.81044 6.69005 7.81044ZM8.36005 6.25044H17.32C17.19 5.91044 16.98 5.60045 16.7 5.32045L14.94 3.54045C13.87 2.48045 12.12 2.48045 11.04 3.54045L8.36005 6.25044Z" fill="#2C4C8D"/>
<path d="M22.5 17.25H19.5C17.98 17.25 16.75 16.02 16.75 14.5C16.75 12.98 17.98 11.75 19.5 11.75H22.5C22.91 11.75 23.25 12.09 23.25 12.5C23.25 12.91 22.91 13.25 22.5 13.25H19.5C18.81 13.25 18.25 13.81 18.25 14.5C18.25 15.19 18.81 15.75 19.5 15.75H22.5C22.91 15.75 23.25 16.09 23.25 16.5C23.25 16.91 22.91 17.25 22.5 17.25Z" fill="#2C4C8D"/>
</svg>
