<svg width="18" height="15" viewBox="0 0 18 15" fill="none" xmlns="http://www.w3.org/2000/svg">
<path d="M7.66738 1.64658L1.0682 12.6634C0.932135 12.899 0.860143 13.1662 0.859381 13.4383C0.858619 13.7103 0.929114 13.9779 1.06385 14.2143C1.19859 14.4506 1.39288 14.6476 1.62738 14.7856C1.86188 14.9236 2.12843 14.9978 2.4005 15.0008H15.5989C15.8709 14.9978 16.1375 14.9236 16.372 14.7856C16.6065 14.6476 16.8008 14.4506 16.9355 14.2143C17.0702 13.9779 17.1407 13.7103 17.14 13.4383C17.1392 13.1662 17.0672 12.899 16.9312 12.6634L10.332 1.64658C10.1931 1.4176 9.99752 1.22828 9.76415 1.0969C9.53078 0.965508 9.26749 0.896484 8.99968 0.896484C8.73187 0.896484 8.46857 0.965508 8.23521 1.0969C8.00184 1.22828 7.80627 1.4176 7.66738 1.64658Z" fill="#FFB82E"/>
<path d="M9 5.65234V8.76884" stroke="white" stroke-width="1.4" stroke-linecap="round" stroke-linejoin="round"/>
<path d="M9 11.8848H9.00861" stroke="white" stroke-width="1.4" stroke-linecap="round" stroke-linejoin="round"/>
</svg>
